/* XPM */
static char *_4d4138d523e458c9e31ab071c78e1b7gHLxvBMUnyONbcGk[] = {
/* columns rows colors chars-per-pixel */
"100 100 7 1 ",
"  c #2F2F2F",
". c #6B331B",
"X c #9C5A3C",
"o c #FF6C76",
"O c #799C40",
"+ c #C1CA33",
"@ c #FEF79F",
/* pixels */
"XXXXXXXXXXXXXX...............XXXXXXXXXXXXXX..............XXXXXXXXXXXXXXXXXXXXXXXXXXXXXXXXXXXXXXXXXXX",
"XXXXXXXXXXXXXX...............XXXXXXXXXXXXXX..............XXXXXXXXXXXXXXXXXXXXXXXXXXXXXXXXXXXXXXXXXXX",
"XXXXXXXXXXXXXX...............XXXXXXXXXXXXXX..............XXXXXXXXXXXXXXXXXXXXXXXXXXXXXXXXXXXXXXXXXXX",
"XXXXXXXXXXXXXX...............XXXXXXXXXXXXXX..............XXXXXXXXXXXXXXXXXXXXXXXXXXXXXXXXXXXXXXXXXXX",
"XXXXXXXXXXXXXX...............XXXXXXXXXXXXXX..............XXXXXXXXXXXXXXXXXXXXXXXXXXXXXXXXXXXXXXXXXXX",
"XXXXXXXXXXXXXX...............XXXXXXXXXXXXXX..............XXXXXXXXXXXXXXXXXXXXXXXXXXXXXXXXXXXXXXXXXXX",
"XXXXXXXXXXXXXX...............XXXXXXXXXXXXXX..............XXXXXXXXXXXXXXXXXXXXXXXXXXXXXXXXXXXXXXXXXXX",
"XXXXXXXXXXXXXX.OOO...........XXXXXXXXXXXXXX..............XXXXXXXXXXXXXXXXXXXXXXXXXXXXXXXXXXXXXXXXXXX",
"XXXXXXXXXXXXXX.OOO...........XXXXXXXXXXXXXX..............XXXXXXXXXXXXXXXXXXXXXXXXXXXXXXXXXXXXXXXXXXX",
"XXXXXXXXXXXXXOOOOO@@@........XXXXXXXXXXXXXX..............XXXXXXXXXXXXXXXXXXXXXXXXXXXXXXXXXXXXXXXXXXX",
"XXXXXXXXXXXXOOOOOO@@@ooo.....XXXXXXXXXXXXXX..............XXXXXXXXXXXXXXXXXXXXXXXXXXXXXXXXXXXXXXXXXXX",
"XXXXXXXXXXXXOOOOOO@@@ooo.....XXXXXXXXXXXXXX..............XXXXXXXXXXXXXXXXXXXXXXXXXXXXXXXXXXXXXXXXXXX",
"XXXXXXXXXXXXOOOOOO@@@oooooo..XXXXXXXXXXXXXX..............XXXXXXXXXXXXXXXXXXXXXXXXXXXXXXXXXXXXXXXXXXX",
"XXXXXXXXXXOOOOOO@@@@@oooooooooXXXXXXXXXXXXX..............XXXXXXXXXXXXXXXXXXXXXXXXXXXXXXXXXXXXXXXXXXX",
"..........OOOOOO@@@@@oooooooooXXXXXXXXXXXXXXXXXXXXXXXXXXX..............XXXXXXXXXXXXXXX..............",
"..........OOOOO@@@@oooooooooooooooXXXXXXXXXXXXXXXXXXXXXXX..............XXXXXXXXXXXXXXX..............",
"..........OOOOO@@@@oooooooooooooooXXXXXXXXXXXXXXXXXXXXXXX..............XXXXXXXXXXXXXXX..............",
".........OOOOOO@@@ooooooooooooooooooooXXXXXXXXXXXXXXXXXXX..............XXXXXXXXXXXXXXX..............",
".........OOOO@@@oooooooooooooooooooooooooXXXXXXXXXXXXXXXX..............XXXXXXXXXXXXXXX..............",
".........OOOO@@@oooooooooooooooooooooooooXXXXXXXXXXXXXXXX..............XXXXXXXXXXXXXXX..............",
".......OOOOOO@@@oooooooooooooooooooooooooooooXXXXXXXXXXXX..............XXXXXXXXXXXXXXX..............",
".......OOOOO@@@@ooooooooooooooooooooooooooooooooXXXXXXXXX..............XXXXXXXXXXXXXXX..............",
".......OOOOO@@@@ooooooooooooooooooooooooooooooooXXXXXXXXX..............XXXXXXXXXXXXXXX..............",
"......OOOOOO@@@@oooooooooooooooooooooooooooooooooooXXXXXX..............XXXXXXXXXXXXXXX..............",
"......OOOOOO@@@@oooooooooooooooooooooooooooooooooooXXXXXX..............XXXXXXXXXXXXXXX..............",
"......OOOO@@@@@oooooooooooooooooooooooooooooooooooooooooX..............XXXXXXXXXXXXXXX..............",
"......OOOO@@@@@oooooooooooooooooooooooooooooooooooooooooooo............XXXXXXXXXXXXXXX..............",
"......OOOO@@@@@oooooooooooooooooooooooooooooooooooooooooooo............XXXXXXXXXXXXXXX..............",
"....OOOOOO@@@@@ooooooooooooooo   ooooooooooooooooooooooooooooo.........XXXXXXXXXXXXXXX..............",
"XXXXOOOOOO@@@@@ooooooooooooooo   oooooooooooooooooooooooooooooXXXXXXXXXXXXXXXXXXXXXXXX..............",
"XXXXOOOOO@@@@@@oooooooooooo      ooooooooooooooooooooooooooooooooooXXXXXXXXXXXXXXXXXXX..............",
"XXXXOOOOO@@@@@@oooooooooooo      oooooooooooooooooooooooooooooooooooooXXXXXXXXXXXXXXXX..............",
"XXXXOOOOO@@@@@@oooooooooooo      oooooooooooooooooooooooooooooooooooooXXXXXXXXXXXXXXXX..............",
"XXXXOOOOO@@@@oooooooooooooo    ooooooooooooooooooooooooooooooooooooooooooXXXXXXXXXXXXX..............",
"XXXXOOOOO@@@@ooooooooooooooooooooooooooooooooooooooooooooooooooooooooooooooooXXXXXXXXX..............",
"XXXXOOOOO@@@@ooooooooooooooooooooooooooooooooooooooooooooooooooooooooooooooooXXXXXXXXX..............",
"XXXXOOOOO@@@@oooooooooooooooooooooooooooooooooooooooooooooooooooooooooooooooooooXXXXXX..............",
"XXXXOOOOO@@@@oooooooooooooooooooooooooooooooooooooooooooooooooooooooooooooooooooXXXXXX..............",
"XXXXOOOOO@@@@ooooooooooooooooooooooooooooooooooooooooooooooooooooooooooooooooooooooXXX..............",
"XXXXOOOOO@@@@ooooooooooooooooooooo     ooooooooooooooooooooooooooooooooooooooooooooooo..............",
"XXXXOOOOO@@@@ooooooooooooooooooooo     ooooooooooooooooooooooooooooooooooooooooooooooo..............",
"XXXXOOOOO@@@@oooooooooooooooooooo      oooooooooooooooooooo   ooooooooooooooooooooooo@@@@...........",
"XXXXOOOOO@@@@oooooooooooooooooooo      oooooooooooooooooooo    oooooooooooooooooooooo@@@@@@@OO......",
"....OOOOO@@@@oooooooooooooooooooo      oooooooooooooooooooo    oooooooooooooooooooooo@@@@@@@OOXXXXXX",
"....OOOOO@@@@oooooooooooooooooooo     oooooooooo   ooooooooo     oooooooooooooooooo@@@@@@@@OOOOOOXXX",
"....OOOOO@@@@oooooooooooooooooooo     oooooooooo   ooooooooo     oooooooooooooooooo@@@@@@@@OOOOOOXXX",
"....OOOOO@@@@oooooooooooooooooooooooooooooooooo    ooooooooo     ooooooooooooooooo@@@@@@@OOOOOOOOXXX",
"....OOOOO@@@@oooooooooooooooooooooooooooooooooo    ooooooooooooooooooooooooooooo@@@@@@@@@OOOOOOOOXXX",
"....OOOOO@@@@oooooooooooooooooooooooooooooooooo    ooooooooooooooooooooooooooooo@@@@@@@@@OOOOOOOOXXX",
"....OOOOO@@@@oooooooooooooooooooooooooooooooooo    oooooooooooooooooooooooooooo@@@@@@@@@OOOOOOOOOXXX",
"....OOOOO@@@@oooooooooooooooooooooooooooooooooo    oooooooooooooooooooooooooooo@@@@@@@@@OOO+OOOOOXXX",
"....OOOOO@@@@oooooooooooooooooooooooooooooooooo    oooooooooooooooooooooooooooo@@@@@@@@@OOO+OOOOOXXX",
"....OOOOO@@@@@@oooooooooooooooooooooooooooooooooooooooooooooooooooooooooooooo@@@@@@@@@OOO+++++OOOXXX",
"....OOOOO@@@@@@oooooooooooooooooooooooooooooooooooooooooooooooooooooooooooooo@@@@@@@@@OOO+++++OOOXXX",
"......OOOO@@@@@ooooooooooooooooooooooooooooooooooooooooooooooooooooooooooooo@@@@@@@@@OOOO+++++OOOXXX",
"......OOOO@@@@@ooooooooooooooooooooooooooooooooooooooooooooooooooooooooooo@@@@@@@@@OOOOO++++++OOOXXX",
"......OOOO@@@@@ooooooooooooooooooooooooooooooooooooooooooooooooooooooooooo@@@@@@@@@OOOOO++++++OOOXXX",
"......OOOOOO@@@@oooooooooooooooooooooooooooooooooooooooooooooooooooooooooo@@@@@@@@OOOOOO++++++OOOXXX",
"XXXXXXOOOOOO@@@@@@ooooooooooooooooooooooooooooooooooooooooooooooooooooooo@@@@@@@OOOOOO++++++++OOO...",
"XXXXXXOOOOOO@@@@@@ooooooooooooooooooooooooooooooooooooooooooooooooooooooo@@@@@@@OOOOOO++++++++OOO...",
"XXXXXXOOOOOOO@@@@@ooooooooooooooooooooooooooooooooooooooooooooooooooooo@@@@@@@@OOOOOOO++++++OOOOO...",
"XXXXXXOOOOOOO@@@@@ooooooooooooooooooooooooooooooooooooooooooooooooooooo@@@@@@@@OOOOOOO++++++OOOOO...",
"XXXXXXXOOOOOO@@@@@@@@ooooooooooooooooooooooooooooooooooooooooooooooooo@@@@@@OOOOOOOOOOOO++++OOO.....",
"XXXXXXXOOOOOOOO@@@@@@@oooooooooooooooooooooooooooooooooooooooooooooo@@@@@@@@OOO+++OOOOOO++++OOO.....",
"XXXXXXXOOOOOOOO@@@@@@@oooooooooooooooooooooooooooooooooooooooooooooo@@@@@@@@OOO+++OOOOOO++++OOO.....",
"XXXXXXXXXOOOOOOO@@@@@@@@ooooooooooooooooooooooooooooooooooooooooo@@@@@@@@OOOOOO+++OOOO++++++OOO.....",
"XXXXXXXXXOOOOOOOOO@@@@@@@ooooooooooooooooooooooooooooooooooooo@@@@@@@@@OOOOOO+++++OOO++++++OOOO.....",
"XXXXXXXXXOOOOOOOOO@@@@@@@ooooooooooooooooooooooooooooooooooooo@@@@@@@@@OOOOOO+++++OOO++++++OOOO.....",
"XXXXXXXXXXOOOOOOOOO@@@@@@@@@ooooooooooooooooooooooooooooooo@@@@@@@@@OOOOOOOOO+++++O++++++OOOOO......",
"XXXXXXXXXXOOOOOOOOO@@@@@@@@@ooooooooooooooooooooooooooooooo@@@@@@@@@OOOOOOOOO+++++O++++++OOOOO......",
"XXXXXXXXXXXXOOOOOOOOO@@@@@@@@@@@@ooooooooooooooooooooooo@@@@@@@@@@@OOOO+++++++++OOO+++++OOOO........",
"XXXXXXXXXXXXXOOOOOOOOO@@@@@@@@@@@@@@@@@@@@@@@@@@@@@@@@@@@@@@@@@OOOOOOO+++++++++OOO++++++OOOO........",
"XXXXXXXXXXXXXOOOOOOOOO@@@@@@@@@@@@@@@@@@@@@@@@@@@@@@@@@@@@@@@@@OOOOOOO+++++++++OOO++++++OOOOXXXXXXXX",
"XXXXXXXXXXXXXX..OOOOOOOO@@@@@@@@@@@@@@@@@@@@@@@@@@@@@@@@@@@OOOOOOOOO++++++++OOOOOO++++++OOOXXXXXXXXX",
"XXXXXXXXXXXXXX..OOOOOOOO@@@@@@@@@@@@@@@@@@@@@@@@@@@@@@@@@@@OOOOOOOOO++++++++OOOOOO++++++OOOXXXXXXXXX",
"XXXXXXXXXXXXXX..OOOOOOOOOOO@@@@@@@@@@@@@@@@@@@@@@@@@@OOOOOOOOOOOOOO++++++OOOOOOO++++++OOOXXXXXXXXXXX",
"XXXXXXXXXXXXXX.....OOOOOOOOOOOO@@@@@@@@@@@@@@@@@OOOOOOOOOOOOOOOOO++++++++OOOOOO+++++++OOXXXXXXXXXXXX",
"XXXXXXXXXXXXXX.....OOOOOOOOOOOO@@@@@@@@@@@@@@@@@OOOOOOOOOOOOOOOOO++++++++OOOOOO+++++++OOXXXXXXXXXXXX",
"XXXXXXXXXXXXXX.....OOOOOOOOOOOOOOOOOOOOOOOOOOOOOOOOOOOOOOOO++++++++++++OOO++++++++++++XXXXXXXXXXXXXX",
"XXXXXXXXXXXXXX........OOOOOOOOOOOOOOOOOOOOOOOOOOOOOOOOOO++++++++++++++OOO++++++++++++.XXXXXXXXXXXXXX",
"XXXXXXXXXXXXXX........OOOOOOOOOOOOOOOOOOOOOOOOOOOOOOOOOO++++++++++++++OOO++++++++++++.XXXXXXXXXXXXXX",
"XXXXXXXXXXXXXX.............OOOO++++++++++OOOOOOOOOOOOO+++++++++++OOOOOO++++++++++++...XXXXXXXXXXXXXX",
"XXXXXXXXXXXXXX.............OOOO++++++++++OOOOOOOOOOOOO+++++++++++OOOOOO++++++++++++...XXXXXXXXXXXXXX",
"XXXXXXXXXXXXXX...............XXXX+++++++++OOOOO+++++++++++++++OOOOOOOO++++++++++++....XXXXXXXXXXXXXX",
"XXXXXXXXXXXXXX...............XXXX+++++++++OOO+++++++++++++++OOOOOOOOOO++++++++++......XXXXXXXXXXXXXX",
"XXXXXXXXXXXXXX...............XXXX+++++++++OOO+++++++++++++++OOOOOOOOOO++++++++++......XXXXXXXXXXXXXX",
"XXXXXXXXXXXXXX...............XXXXXXX+++++OOOO+++++++++++++++OOOOOOOOOO+++++++.........XXXXXXXXXXXXXX",
"XXXXXXXXXXXXXXXXXXXXXXXXXXXXX..............XO+++++++++++OOOOOOOOOOOXXXXXXXXXXXXXXXXXXXXXXXXXXXXXXXXX",
"XXXXXXXXXXXXXXXXXXXXXXXXXXXXX..............XO+++++++++++OOOOOOOOOOOXXXXXXXXXXXXXXXXXXXXXXXXXXXXXXXXX",
"XXXXXXXXXXXXXXXXXXXXXXXXXXXXX..............XXXXXXXXXXXXXXXXXXXXXXXXXXXXXXXXXXXXXXXXXXXXXXXXXXXXXXXXX",
"XXXXXXXXXXXXXXXXXXXXXXXXXXXXX..............XXXXXXXXXXXXXXXXXXXXXXXXXXXXXXXXXXXXXXXXXXXXXXXXXXXXXXXXX",
"XXXXXXXXXXXXXXXXXXXXXXXXXXXXX..............XXXXXXXXXXXXXXXXXXXXXXXXXXXXXXXXXXXXXXXXXXXXXXXXXXXXXXXXX",
"XXXXXXXXXXXXXXXXXXXXXXXXXXXXX..............XXXXXXXXXXXXXXXXXXXXXXXXXXXXXXXXXXXXXXXXXXXXXXXXXXXXXXXXX",
"XXXXXXXXXXXXXXXXXXXXXXXXXXXXX..............XXXXXXXXXXXXXXXXXXXXXXXXXXXXXXXXXXXXXXXXXXXXXXXXXXXXXXXXX",
"XXXXXXXXXXXXXXXXXXXXXXXXXXXXX..............XXXXXXXXXXXXXXXXXXXXXXXXXXXXXXXXXXXXXXXXXXXXXXXXXXXXXXXXX",
"XXXXXXXXXXXXXXXXXXXXXXXXXXXXX..............XXXXXXXXXXXXXXXXXXXXXXXXXXXXXXXXXXXXXXXXXXXXXXXXXXXXXXXXX",
"XXXXXXXXXXXXXXXXXXXXXXXXXXXXX..............XXXXXXXXXXXXXXXXXXXXXXXXXXXXXXXXXXXXXXXXXXXXXXXXXXXXXXXXX",
"XXXXXXXXXXXXXXXXXXXXXXXXXXXXX..............XXXXXXXXXXXXXXXXXXXXXXXXXXXXXXXXXXXXXXXXXXXXXXXXXXXXXXXXX",
"XXXXXXXXXXXXXXXXXXXXXXXXXXXXX..............XXXXXXXXXXXXXXXXXXXXXXXXXXXXXXXXXXXXXXXXXXXXXXXXXXXXXXXXX",
"XXXXXXXXXXXXXXXXXXXXXXXXXXXXX..............XXXXXXXXXXXXXXXXXXXXXXXXXXXXXXXXXXXXXXXXXXXXXXXXXXXXXXXXX"
};
