/* XPM */
static char *df4e5e481f11480f952f1d37015ea6d65lQY1rsfo3WnHUXd[] = {
/* columns rows colors chars-per-pixel */
"100 100 6 1 ",
"  c None",
". c #2F2F2F",
"X c #FF6C76",
"o c #799C40",
"O c #C1CA33",
"+ c #FEF79F",
/* pixels */
"                                                                                                    ",
"                                                                                                    ",
"                                                                                                    ",
"                                                                                                    ",
"                                                                                                    ",
"                                                                                                    ",
"                                                                                                    ",
"                                                                                                    ",
"                                                                                                    ",
"                                                                                                    ",
"                                                                                                    ",
"                                                                                                    ",
"                                                                                                    ",
"                                                                                                    ",
"                                                                                                    ",
"                                                                                                    ",
"              ooo                                                                                   ",
"            ooooo+++                                                                                ",
"            ooooo+++                                                                                ",
"           oooooo+++XXX                                                                             ",
"           oooooo+++XXXXXX                                                                          ",
"           oooooo+++XXXXXX                                                                          ",
"         oooooo+++++XXXXXXXXX                                                                       ",
"         ooooo++++XXXXXXXXXXXXXXXX                                                                  ",
"         ooooo++++XXXXXXXXXXXXXXXX                                                                  ",
"        oooooo+++XXXXXXXXXXXXXXXXXXXX                                                               ",
"        oooo+++XXXXXXXXXXXXXXXXXXXXXXXXX                                                            ",
"        oooo+++XXXXXXXXXXXXXXXXXXXXXXXXX                                                            ",
"      oooooo+++XXXXXXXXXXXXXXXXXXXXXXXXXXXXXX                                                       ",
"      ooooo++++XXXXXXXXXXXXXXXXXXXXXXXXXXXXXXXXX                                                    ",
"      ooooo++++XXXXXXXXXXXXXXXXXXXXXXXXXXXXXXXXX                                                    ",
"     oooooo++++XXXXXXXXXXXXXXXXXXXXXXXXXXXXXXXXXXXX                                                 ",
"     oooo+++++XXXXXXXXXXXXXXXXXXXXXXXXXXXXXXXXXXXXXXXXX                                             ",
"     oooo+++++XXXXXXXXXXXXXXXXXXXXXXXXXXXXXXXXXXXXXXXXXXXX                                          ",
"     oooo+++++XXXXXXXXXXXXXXXXXXXXXXXXXXXXXXXXXXXXXXXXXXXX                                          ",
"   oooooo+++++XXXXXXXXXXXXXXX...XXXXXXXXXXXXXXXXXXXXXXXXXXXXXX                                      ",
"   ooooo++++++XXXXXXXXXXXX......XXXXXXXXXXXXXXXXXXXXXXXXXXXXXXXXXX                                  ",
"   ooooo++++++XXXXXXXXXXXX......XXXXXXXXXXXXXXXXXXXXXXXXXXXXXXXXXX                                  ",
"   ooooo++++++XXXXXXXXXXXX......XXXXXXXXXXXXXXXXXXXXXXXXXXXXXXXXXXXXX                               ",
"   ooooo++++XXXXXXXXXXXXXX.....XXXXXXXXXXXXXXXXXXXXXXXXXXXXXXXXXXXXXXXXX                            ",
"   ooooo++++XXXXXXXXXXXXXX.....XXXXXXXXXXXXXXXXXXXXXXXXXXXXXXXXXXXXXXXXX                            ",
"   ooooo++++XXXXXXXXXXXXXXXXXXXXXXXXXXXXXXXXXXXXXXXXXXXXXXXXXXXXXXXXXXXXXXXXX                       ",
"   ooooo++++XXXXXXXXXXXXXXXXXXXXXXXXXXXXXXXXXXXXXXXXXXXXXXXXXXXXXXXXXXXXXXXXXXXX                    ",
"   ooooo++++XXXXXXXXXXXXXXXXXXXXXXXXXXXXXXXXXXXXXXXXXXXXXXXXXXXXXXXXXXXXXXXXXXXX                    ",
"   ooooo++++XXXXXXXXXXXXXXXXXXXXXXXXXXXXXXXXXXXXXXXXXXXXXXXXXXXXXXXXXXXXXXXXXXXXXXX                 ",
"   ooooo++++XXXXXXXXXXXXXXXXXXXXXX....XXXXXXXXXXXXXXXXXXXXXXXXXXXXXXXXXXXXXXXXXXXXXXXX              ",
"   ooooo++++XXXXXXXXXXXXXXXXXXXX......XXXXXXXXXXXXXXXXXXXX....XXXXXXXXXXXXXXXXXXXXXXX++++           ",
"   ooooo++++XXXXXXXXXXXXXXXXXXXX......XXXXXXXXXXXXXXXXXXXX....XXXXXXXXXXXXXXXXXXXXXXX++++           ",
"   ooooo++++XXXXXXXXXXXXXXXXXXXX......XXXXXXXXXXXXXXXXXXXX.....XXXXXXXXXXXXXXXXXXXXXX+++++++oo      ",
"   ooooo++++XXXXXXXXXXXXXXXXXXXX.....XXXXXXXXXXX...XXXXXXXXX.....XXXXXXXXXXXXXXXXXX++++++++oooooo   ",
"   ooooo++++XXXXXXXXXXXXXXXXXXXX.....XXXXXXXXXXX...XXXXXXXXX.....XXXXXXXXXXXXXXXXXX++++++++oooooo   ",
"   ooooo++++XXXXXXXXXXXXXXXXXXXXXXXXXXXXXXXXXX.....XXXXXXXXX.....XXXXXXXXXXXXXXXXX+++++++oooooooo   ",
"   ooooo++++XXXXXXXXXXXXXXXXXXXXXXXXXXXXXXXXXX.....XXXXXXXXXXXXXXXXXXXXXXXXXXXXX+++++++++oooooooo   ",
"   ooooo++++XXXXXXXXXXXXXXXXXXXXXXXXXXXXXXXXXX.....XXXXXXXXXXXXXXXXXXXXXXXXXXXXX+++++++++oooooooo   ",
"   ooooo++++XXXXXXXXXXXXXXXXXXXXXXXXXXXXXXXXXX.....XXXXXXXXXXXXXXXXXXXXXXXXXXXX+++++++++ooooooooo   ",
"   ooooo++++XXXXXXXXXXXXXXXXXXXXXXXXXXXXXXXXXX.....XXXXXXXXXXXXXXXXXXXXXXXXXXXX+++++++++oooOooooo   ",
"   ooooo++++XXXXXXXXXXXXXXXXXXXXXXXXXXXXXXXXXX.....XXXXXXXXXXXXXXXXXXXXXXXXXXXX+++++++++oooOooooo   ",
"   ooooo++++++XXXXXXXXXXXXXXXXXXXXXXXXXXXXXXXXXXXXXXXXXXXXXXXXXXXXXXXXXXXXXXX+++++++++oooOOOOOooo   ",
"     oooo+++++XXXXXXXXXXXXXXXXXXXXXXXXXXXXXXXXXXXXXXXXXXXXXXXXXXXXXXXXXXXXX++++++++++ooooOOOOOooo   ",
"     oooo+++++XXXXXXXXXXXXXXXXXXXXXXXXXXXXXXXXXXXXXXXXXXXXXXXXXXXXXXXXXXXXX++++++++++ooooOOOOOooo   ",
"     oooo+++++XXXXXXXXXXXXXXXXXXXXXXXXXXXXXXXXXXXXXXXXXXXXXXXXXXXXXXXXXXXX+++++++++oooooOOOOOOooo   ",
"     oooooo++++XXXXXXXXXXXXXXXXXXXXXXXXXXXXXXXXXXXXXXXXXXXXXXXXXXXXXXXXXXX++++++++ooooooOOOOOOooo   ",
"     oooooo++++++XXXXXXXXXXXXXXXXXXXXXXXXXXXXXXXXXXXXXXXXXXXXXXXXXXXXXXX++++++++ooooooOOOOOOOOooo   ",
"     oooooo++++++XXXXXXXXXXXXXXXXXXXXXXXXXXXXXXXXXXXXXXXXXXXXXXXXXXXXXXX++++++++ooooooOOOOOOOOooo   ",
"     ooooooo+++++XXXXXXXXXXXXXXXXXXXXXXXXXXXXXXXXXXXXXXXXXXXXXXXXXXXXXX++++++++oooooooOOOOOOooooo   ",
"      oooooo++++++++XXXXXXXXXXXXXXXXXXXXXXXXXXXXXXXXXXXXXXXXXXXXXXXXX++++++oooooooooooooOOOOooo     ",
"      oooooo++++++++XXXXXXXXXXXXXXXXXXXXXXXXXXXXXXXXXXXXXXXXXXXXXXXXX++++++oooooooooooooOOOOooo     ",
"      oooooooo+++++++XXXXXXXXXXXXXXXXXXXXXXXXXXXXXXXXXXXXXXXXXXXXXXX+++++++ooooOOOooooooOOOOooo     ",
"        ooooooo++++++++XXXXXXXXXXXXXXXXXXXXXXXXXXXXXXXXXXXXXXXXXX+++++++oooooooOOOooooOOOOOOooo     ",
"        ooooooo++++++++XXXXXXXXXXXXXXXXXXXXXXXXXXXXXXXXXXXXXXXXXX+++++++oooooooOOOooooOOOOOOooo     ",
"        ooooooooo++++++++XXXXXXXXXXXXXXXXXXXXXXXXXXXXXXXXXXXXX+++++++++ooooooOOOOOoooOOOOOOoooo     ",
"         ooooooooo++++++++++XXXXXXXXXXXXXXXXXXXXXXXXXXXXXX++++++++++oooooooooOOOOOoOOOOOOooooo      ",
"         ooooooooo++++++++++XXXXXXXXXXXXXXXXXXXXXXXXXXXXXX++++++++++oooooooooOOOOOoOOOOOOooooo      ",
"           ooooooooo++++++++++++XXXXXXXXXXXXXXXXXXXXXXX+++++++++++oooooOOOOOOOOOoooOOOOOoooo        ",
"            ooooooooo++++++++++++++++++++++++++++++++++++++++++ooooooOOOOOOOOOOoooOOOOOOoooo        ",
"               oooooooo+++++++++++++++++++++++++++++++++++ooooooooooOOOOOOOoooooooOOOOOOooo         ",
"               oooooooo+++++++++++++++++++++++++++++++++++ooooooooooOOOOOOOoooooooOOOOOOooo         ",
"               ooooooooooo++++++++++++++++++++++++++ooooooooooooooOOOOOOooooooooOOOOOOooo           ",
"                  ooooooooooooo+++++++++++++++++oooooooooooooooooOOOOOOOoooooooOOOOOOOoo            ",
"                  ooooooooooooo+++++++++++++++++oooooooooooooooooOOOOOOOoooooooOOOOOOOoo            ",
"                  ooooooooooooooooooooooooooooooooooooooooOOOOOOOOOOOOOoooOOOOOOOOOOOO              ",
"                     ooooooooooooooooooooooooooooooooooOOOOOOOOOOOOOOoooOOOOOOOOOOOOO               ",
"                     ooooooooooooooooooooooooooooooooooOOOOOOOOOOOOOOoooOOOOOOOOOOOOO               ",
"                          oooooOOOOOOOOOooooooooooooooOOOOOOOOOOOooooooOOOOOOOOOOOO                 ",
"                                OOOOOOOOOOooooOOOOOOOOOOOOOOOOoooooooOOOOOOOOOOOOO                  ",
"                                OOOOOOOOOOooooOOOOOOOOOOOOOOOOoooooooOOOOOOOOOOOOO                  ",
"                                OOOOOOOOOOoooOOOOOOOOOOOOOOOoooooooooOOOOOOOOOOO                    ",
"                                   OOOOOoooooOOOOOOOOOOOOOOOoooooooooOOOOOOOO                       ",
"                                   OOOOOoooooOOOOOOOOOOOOOOOoooooooooOOOOOOOO                       ",
"                                           ooOOOOOOOOOOooooooooooo                                  ",
"                                                                                                    ",
"                                                                                                    ",
"                                                                                                    ",
"                                                                                                    ",
"                                                                                                    ",
"                                                                                                    ",
"                                                                                                    ",
"                                                                                                    ",
"                                                                                                    ",
"                                                                                                    "
};
