/* XPM */
static char *d5ae4dacc5024967fa7a5ead8a3986f6G8K2L5UqrV6ta0OG[] = {
/* columns rows colors chars-per-pixel */
"100 100 4 1 ",
"  c #755F3E",
". c #695A59",
"X c #9C7E51",
"o c #AD9064",
/* pixels */
"oooooooooooooooooooooooooooooXXXXXXXXXXXXXXoooooooooooooooooooooooooooooooooooooooooooXXXXXXXXXXXXXX",
"oooooooooooooooooooooooooooooXXXXXXXXXXXXXXoooooooooooooooooooooooooooooooooooooooooooXXXXXXXXXXXXXX",
"oooooooooooooooooooooooooooooXXXXXXXXXXXXXXoooooooooooooooooooooooooooooooooooooooooooXXXXXXXXXXXXXX",
"oooooooooooooooooooooooooooooXXXXXXXXXXXXXXoooooooooooooooooooooooooooooooooooooooooooXXXXXXXXXXXXXX",
"oooooooooooooooooooooooooooooXXXXXXXXXXXXXXoooooooooooooooooooooooooooooooooooooooooooXXXXXXXXXXXXXX",
"oooooooooooooooooooooooooooooXXXXXXXXXXXXXXoooooooooooooooooooooooooooooooooooooooooooXXXXXXXXXXXXXX",
"oooooooooooooooooooooooooooooXXXXXXXXXXXXXXoooooooooooooooooooooooooooooooooooooooooooXXXXXXXXXXXXXX",
"ooooooooooooooooooooooooooooooooooooooooooooooooooooooooo              ooooooooooooooooooooooooooooo",
"ooooooooooooooooooooooooooooooooooooooooooooooooooooooooo              ooooooooooooooooooooooooooooo",
"ooooooooooooooooooooooooooooooooooooooooooooooooooooooooo              ooooooooooooooooooooooooooooo",
"ooooooooooooooooooooooooooooooooooooooooooooooooooooooooo              ooooooooooooooooooooooooooooo",
"ooooooooooooooooooooooooooooooooooooooooooooooooooooooooo              ooooooooooooooooooooooooooooo",
"ooooooooooooooooooooooooooooooooooooooooooooooooooooooooo              ooooooooooooooooooooooooooooo",
"ooooooooooooooooooooooooooooooooooooooooooooooooooooooooo              ooooooooooooooooooooooooooooo",
"oooooooXXXXXXXXXXXXXXooooooooooooooooooooooooooooo       ..............        ooooooooooooooooooooo",
"oooooooXXXXXXXXXXXXXXooooooooooooooooooooooooooooo       ..............        ooooooooooooooooooooo",
"oooooooXXXXXXXXXXXXXXooooooooooooooooooooooooooooo       ..............        ooooooooooooooooooooo",
"oooooooXXXXXXXXXXXXXXooooooooooooooooooooooooooooo       ..............        ooooooooooooooooooooo",
"oooooooXXXXXXXXXXXXXXooooooooooooooooooooooooooooo       ..............        ooooooooooooooooooooo",
"oooooooXXXXXXXXXXXXXXooooooooooooooooooooooooooooo       ..............        ooooooooooooooooooooo",
"oooooooXXXXXXXXXXXXXXooooooooooooooooooooooooooooo       ..............        ooooooooooooooooooooo",
"oooooooooooooooooooooooooooooooooooooooooooooooooooooooooooooooooooooooooooooooXXXXXXXoooooooooooooo",
"oooooooooooooooooooooooooooooooooooooooooooooooooooooooooooooooooooooooooooooooXXXXXXXoooooooooooooo",
"oooooooooooooooooooooooooooooooooooooooooooooooooooooooooooooooooooooooooooooooXXXXXXXoooooooooooooo",
"oooooooooooooooooooooooooooooooooooooooooooooooooooooooooooooooooooooooooooooooXXXXXXXoooooooooooooo",
"oooooooooooooooooooooooooooooooooooooooooooooooooooooooooooooooooooooooooooooooXXXXXXXoooooooooooooo",
"oooooooooooooooooooooooooooooooooooooooooooooooooooooooooooooooooooooooooooooooXXXXXXXoooooooooooooo",
"oooooooooooooooooooooooooooooooooooooooooooooooooooooooooooooooooooooooooooooooXXXXXXXoooooooooooooo",
"oooooooooooooooooooooooooooooooooooooooooooooooooooooooooooooooooooooooooooooooXXXXXXXoooooooooooooo",
"ooooooooooooooooooooooooooooooooooooXXXXXXXXXXXXXXooooooooooooooXXXXXXXXXXXXXXXooooooooooooooooooooo",
"ooooooooooooooooooooooooooooooooooooXXXXXXXXXXXXXXooooooooooooooXXXXXXXXXXXXXXXooooooooooooooooooooo",
"ooooooooooooooooooooooooooooooooooooXXXXXXXXXXXXXXooooooooooooooXXXXXXXXXXXXXXXooooooooooooooooooooo",
"ooooooooooooooooooooooooooooooooooooXXXXXXXXXXXXXXooooooooooooooXXXXXXXXXXXXXXXooooooooooooooooooooo",
"ooooooooooooooooooooooooooooooooooooXXXXXXXXXXXXXXooooooooooooooXXXXXXXXXXXXXXXooooooooooooooooooooo",
"ooooooooooooooooooooooooooooooooooooXXXXXXXXXXXXXXooooooooooooooXXXXXXXXXXXXXXXooooooooooooooooooooo",
"ooooooooooooooooooooooooooooooooooooXXXXXXXXXXXXXXooooooooooooooXXXXXXXXXXXXXXXooooooooooooooooooooo",
"ooooooo              ooooooooooooooooooooooooooooooooooooooooooooooooooooooooooooooooooooooooooooooo",
"ooooooo              ooooooooooooooooooooooooooooooooooooooooooooooooooooooooooooooooooooooooooooooo",
"ooooooo              ooooooooooooooooooooooooooooooooooooooooooooooooooooooooooooooooooooooooooooooo",
"ooooooo              ooooooooooooooooooooooooooooooooooooooooooooooooooooooooooooooooooooooooooooooo",
"ooooooo              ooooooooooooooooooooooooooooooooooooooooooooooooooooooooooooooooooooooooooooooo",
"ooooooo              ooooooooooooooooooooooooooooooooooooooooooooooooooooooooooooooooooooooooooooooo",
"ooooooo              ooooooooooooooooooooooooooooooooooooooooooooooooooooooooooooooooooooooooooooooo",
"       ..............        oooooooooooooooooooooooooooooooooooooooooooooooooooooooooXXXXXXXXXXXXXX",
"       ..............        oooooooooooooooooooooooooooooooooooooooooooooooooooooooooXXXXXXXXXXXXXX",
"       ..............        oooooooooooooooooooooooooooooooooooooooooooooooooooooooooXXXXXXXXXXXXXX",
"       ..............        oooooooooooooooooooooooooooooooooooooooooooooooooooooooooXXXXXXXXXXXXXX",
"       ..............        oooooooooooooooooooooooooooooooooooooooooooooooooooooooooXXXXXXXXXXXXXX",
"       ..............        oooooooooooooooooooooooooooooooooooooooooooooooooooooooooXXXXXXXXXXXXXX",
"       ..............        oooooooooooooooooooooooooooooooooooooooooooooooooooooooooXXXXXXXXXXXXXX",
"ooooooooooooooooooooooooooooooooooooXXXXXXXXXXXXXXoooooooooooooo               ooooooooooooooooooooo",
"ooooooooooooooooooooooooooooooooooooXXXXXXXXXXXXXXoooooooooooooo               ooooooooooooooooooooo",
"ooooooooooooooooooooooooooooooooooooXXXXXXXXXXXXXXoooooooooooooo               ooooooooooooooooooooo",
"ooooooooooooooooooooooooooooooooooooXXXXXXXXXXXXXXoooooooooooooo               ooooooooooooooooooooo",
"ooooooooooooooooooooooooooooooooooooXXXXXXXXXXXXXXoooooooooooooo               ooooooooooooooooooooo",
"ooooooooooooooooooooooooooooooooooooXXXXXXXXXXXXXXoooooooooooooo               ooooooooooooooooooooo",
"ooooooooooooooooooooooooooooooooooooXXXXXXXXXXXXXXoooooooooooooo               ooooooooooooooooooooo",
"XXXXXXXoooooooooooooooooooooooooooooooooooooooooooooooooo       ...............       oooooooXXXXXXX",
"XXXXXXXoooooooooooooooooooooooooooooooooooooooooooooooooo       ...............       oooooooXXXXXXX",
"XXXXXXXoooooooooooooooooooooooooooooooooooooooooooooooooo       ...............       oooooooXXXXXXX",
"XXXXXXXoooooooooooooooooooooooooooooooooooooooooooooooooo       ...............       oooooooXXXXXXX",
"XXXXXXXoooooooooooooooooooooooooooooooooooooooooooooooooo       ...............       oooooooXXXXXXX",
"XXXXXXXoooooooooooooooooooooooooooooooooooooooooooooooooo       ...............       oooooooXXXXXXX",
"XXXXXXXoooooooooooooooooooooooooooooooooooooooooooooooooo       ...............       oooooooXXXXXXX",
"oooooooooooooooooooooooooooooooooooooooooooooooooooooooooXXXXXXXXXXXXXXooooooooooooooooooooooooooooo",
"oooooooooooooooooooooooooooooooooooooooooooooooooooooooooXXXXXXXXXXXXXXooooooooooooooooooooooooooooo",
"oooooooooooooooooooooooooooooooooooooooooooooooooooooooooXXXXXXXXXXXXXXooooooooooooooooooooooooooooo",
"oooooooooooooooooooooooooooooooooooooooooooooooooooooooooXXXXXXXXXXXXXXooooooooooooooooooooooooooooo",
"oooooooooooooooooooooooooooooooooooooooooooooooooooooooooXXXXXXXXXXXXXXooooooooooooooooooooooooooooo",
"oooooooooooooooooooooooooooooooooooooooooooooooooooooooooXXXXXXXXXXXXXXooooooooooooooooooooooooooooo",
"oooooooooooooooooooooooooooooooooooooooooooooooooooooooooXXXXXXXXXXXXXXooooooooooooooooooooooooooooo",
"ooooooooooooooXXXXXXXXXXXXXXXooooooooooooooooooooooooooooooooooooooooooooooooooooooooooooooooooooooo",
"ooooooooooooooXXXXXXXXXXXXXXXooooooooooooooooooooooooooooooooooooooooooooooooooooooooooooooooooooooo",
"ooooooooooooooXXXXXXXXXXXXXXXooooooooooooooooooooooooooooooooooooooooooooooooooooooooooooooooooooooo",
"ooooooooooooooXXXXXXXXXXXXXXXooooooooooooooooooooooooooooooooooooooooooooooooooooooooooooooooooooooo",
"ooooooooooooooXXXXXXXXXXXXXXXooooooooooooooooooooooooooooooooooooooooooooooooooooooooooooooooooooooo",
"ooooooooooooooXXXXXXXXXXXXXXXooooooooooooooooooooooooooooooooooooooooooooooooooooooooooooooooooooooo",
"ooooooooooooooXXXXXXXXXXXXXXXooooooooooooooooooooooooooooooooooooooooooooooooooooooooooooooooooooooo",
"ooooooooooooooXXXXXXXXXXXXXXXooooooooooooooooooooooooooooooooooooooooooooooooooooooooooooooooooooooo",
"oooooooooooooooooooooooooooooooooooooooooooooooooo              oooooooooooooooXXXXXXXXXXXXXXooooooo",
"oooooooooooooooooooooooooooooooooooooooooooooooooo              oooooooooooooooXXXXXXXXXXXXXXooooooo",
"oooooooooooooooooooooooooooooooooooooooooooooooooo              oooooooooooooooXXXXXXXXXXXXXXooooooo",
"oooooooooooooooooooooooooooooooooooooooooooooooooo              oooooooooooooooXXXXXXXXXXXXXXooooooo",
"oooooooooooooooooooooooooooooooooooooooooooooooooo              oooooooooooooooXXXXXXXXXXXXXXooooooo",
"oooooooooooooooooooooooooooooooooooooooooooooooooo              oooooooooooooooXXXXXXXXXXXXXXooooooo",
"oooooooooooooooooooooooooooooooooooooooooooooooooo              oooooooooooooooXXXXXXXXXXXXXXooooooo",
"              oooooooXXXXXXXXXXXXXXXooooooo       ..............       ooooooooooooooooooooooooooooo",
"              oooooooXXXXXXXXXXXXXXXooooooo       ..............       ooooooooooooooooooooooooooooo",
"              oooooooXXXXXXXXXXXXXXXooooooo       ..............       ooooooooooooooooooooooooooooo",
"              oooooooXXXXXXXXXXXXXXXooooooo       ..............       ooooooooooooooooooooooooooooo",
"              oooooooXXXXXXXXXXXXXXXooooooo       ..............       ooooooooooooooooooooooooooooo",
"              oooooooXXXXXXXXXXXXXXXooooooo       ..............       ooooooooooooooooooooooooooooo",
"              oooooooXXXXXXXXXXXXXXXooooooo       ..............       ooooooooooooooooooooooooooooo",
"..............       oooooooooooooooooooooooooooooooooooooooooooooooooooooooooooooooooooooooo       ",
"..............       oooooooooooooooooooooooooooooooooooooooooooooooooooooooooooooooooooooooo       ",
"..............       oooooooooooooooooooooooooooooooooooooooooooooooooooooooooooooooooooooooo       ",
"..............       oooooooooooooooooooooooooooooooooooooooooooooooooooooooooooooooooooooooo       ",
"..............       oooooooooooooooooooooooooooooooooooooooooooooooooooooooooooooooooooooooo       ",
"..............       oooooooooooooooooooooooooooooooooooooooooooooooooooooooooooooooooooooooo       ",
"..............       oooooooooooooooooooooooooooooooooooooooooooooooooooooooooooooooooooooooo       "
};
