/* XPM */
static char *_1ee94eb5bb346b8dd2149dd7fef47815WvRT1MaL8mH7C7R[] = {
/* columns rows colors chars-per-pixel */
"100 100 2 1 ",
"  c #6B331B",
". c #9C5A3C",
/* pixels */
"..............               ..............              ...........................................",
"..............               ..............              ...........................................",
"..............               ..............              ...........................................",
"..............               ..............              ...........................................",
"..............               ..............              ...........................................",
"..............               ..............              ...........................................",
"..............               ..............              ...........................................",
"..............               ..............              ...........................................",
"..............               ..............              ...........................................",
"..............               ..............              ...........................................",
"..............               ..............              ...........................................",
"..............               ..............              ...........................................",
"..............               ..............              ...........................................",
"..............               ..............              ...........................................",
"              ...........................................              ...............              ",
"              ...........................................              ...............              ",
"              ...........................................              ...............              ",
"              ...........................................              ...............              ",
"              ...........................................              ...............              ",
"              ...........................................              ...............              ",
"              ...........................................              ...............              ",
"              ...........................................              ...............              ",
"              ...........................................              ...............              ",
"              ...........................................              ...............              ",
"              ...........................................              ...............              ",
"              ...........................................              ...............              ",
"              ...........................................              ...............              ",
"              ...........................................              ...............              ",
"              ...........................................              ...............              ",
".............................              ...........................................              ",
".............................              ...........................................              ",
".............................              ...........................................              ",
".............................              ...........................................              ",
".............................              ...........................................              ",
".............................              ...........................................              ",
".............................              ...........................................              ",
".............................              ...........................................              ",
".............................              ...........................................              ",
".............................              ...........................................              ",
".............................              ...........................................              ",
".............................              ...........................................              ",
".............................              ...........................................              ",
".............................              ...........................................              ",
"              .........................................................               ..............",
"              .........................................................               ..............",
"              .........................................................               ..............",
"              .........................................................               ..............",
"              .........................................................               ..............",
"              .........................................................               ..............",
"              .........................................................               ..............",
"              .........................................................               ..............",
"              .........................................................               ..............",
"              .........................................................               ..............",
"              .........................................................               ..............",
"              .........................................................               ..............",
"              .........................................................               ..............",
"              .........................................................               ..............",
"...........................................              .............................              ",
"...........................................              .............................              ",
"...........................................              .............................              ",
"...........................................              .............................              ",
"...........................................              .............................              ",
"...........................................              .............................              ",
"...........................................              .............................              ",
"...........................................              .............................              ",
"...........................................              .............................              ",
"...........................................              .............................              ",
"...........................................              .............................              ",
"...........................................              .............................              ",
"...........................................              .............................              ",
"...........................................              .............................              ",
"..............               ..........................................               ..............",
"..............               ..........................................               ..............",
"..............               ..........................................               ..............",
"..............               ..........................................               ..............",
"..............               ..........................................               ..............",
"..............               ..........................................               ..............",
"..............               ..........................................               ..............",
"..............               ..........................................               ..............",
"..............               ..........................................               ..............",
"..............               ..........................................               ..............",
"..............               ..........................................               ..............",
"..............               ..........................................               ..............",
"..............               ..........................................               ..............",
"..............               ..........................................               ..............",
"..............               ..........................................               ..............",
".............................              .........................................................",
".............................              .........................................................",
".............................              .........................................................",
".............................              .........................................................",
".............................              .........................................................",
".............................              .........................................................",
".............................              .........................................................",
".............................              .........................................................",
".............................              .........................................................",
".............................              .........................................................",
".............................              .........................................................",
".............................              .........................................................",
".............................              .........................................................",
".............................              ........................................................."
};
