/* XPM */
static char *_d0f74b095304ab89f6944f9daff8ab38d8nm5DvbPKc1Zqs[] = {
/* columns rows colors chars-per-pixel */
"100 100 67 1 ",
"  c black",
". c gray16",
"X c #6B331B",
"o c #DA0000",
"O c #DF0000",
"+ c #E10000",
"@ c #E70000",
"# c #EA0000",
"$ c #EF0000",
"% c #F00000",
"& c #F50000",
"* c #FB0000",
"= c red",
"- c #9C5A3C",
"; c #D76400",
": c #D86500",
"> c #DE6700",
", c #DF6800",
"< c #E06800",
"1 c #E46B00",
"2 c #E76C00",
"3 c #E96D00",
"4 c #EC6E00",
"5 c #F27100",
"6 c #F47200",
"7 c #FB7500",
"8 c #FF7700",
"9 c #0DC500",
"0 c #0DD200",
"q c #0DDF00",
"w c #0DEC00",
"e c #0DF800",
"r c #0DFF00",
"t c #C5C800",
"y c #CED300",
"u c #D7DC00",
"i c #D8DD00",
"p c #E1E700",
"a c #E9F000",
"s c #F3FA00",
"d c #F7FF00",
"f c #0C00BC",
"g c #5600A7",
"h c #5700A9",
"j c #5C00B1",
"k c #5D00B4",
"l c #6100BB",
"z c #6200BE",
"x c #0D00CB",
"c c #0E00CC",
"v c #0E00DA",
"b c #0F00E9",
"n c #1000E9",
"m c #1000F7",
"M c #1100F8",
"N c #1100FF",
"B c #6700C7",
"V c #6700C8",
"C c #6B00D0",
"Z c #6C00D2",
"A c #7100DA",
"S c #7200DC",
"D c #7600E4",
"F c #7B00EE",
"G c #7C00F0",
"H c #8100FA",
"J c #8400FF",
/* pixels */
"--------------XXXXXXXXXXXXXXX--------------XXXXXXXXXXXXXX-------------------------------------------",
"--------------XXXXXXXXXXXXXXX--------------XXXXXXXXXXXXXX-------------------------------------------",
"--------------XXXXXXXXXXXXXXX--------------XXXXXXXXXXXXXX-------------------------------------------",
"--------------XXXXXXXXXXXXXXX--------------XXXXXXXXXXXXXX-------------------------------------------",
"--------------XXXXXXXXXXXXXXX--------------XXXXXXXXXXXXXX-------------------------------------------",
"--------------XXXXXXXXXXXXX        --------XXXXXXXXXXXXXX-------------------------------------------",
"--------------XXXXXXXXXXXX   ...    -------XXXXXXXXXXXXXX-------------------------------------------",
"--------------XXXXXXXXXXXX ..       -------XXXXXXXXXXXXXX-------------------------------------------",
"--------------XXXXXXXXXXXX ..       -------XXXXXXXXXXXXXX-------------------------------------------",
"--------------XXXXXXXXXXXX ..       -------XXXXXXXXXXXXXX-------------------------------------------",
"--------------XXXXXXXXXXXX   .      ---               XXX-------------------------------------------",
"--------------XXXXXXXXXXXXX            &==============    ------------------------------------------",
"--------------XXXXXXXXXXXXXXX      +#%%&================    ----------------------------------------",
"--------------XXXXXXXXXXXXXXX     o+#$$&===================  ---------------------------------------",
"XXXXXXXXXXXXXX---------------     o+@$$&*===================   XXXXXXXX---------   ---XXXXXXXXXXXXXX",
"XXXXXXXXXXXXXX---------------     o+@$$&*===================   XXXXXXXX---------   ---XXXXXXXXXXXXXX",
"XXXXXXXXXXXXXX---------------     oO@$$%*88888888==============   XXXXX-------  === --XXXXXXXXXXXXXX",
"XXXXXXXXXXXXXX---------------     oO3556888888888888=============             ===== --XXXXXXXXXXXXXX",
"XXXXXXXXXXXXXX---------------     :<2446888888888888888============================ --XXXXXXXXXXXXXX",
"XXXXXXXXXXXXXX---------------     :,1446788888888888888888========================= --XXXXXXXXXXXXXX",
"XXXXXXXXXXXXXX---------------     ;>144578888888888888888888======================= --XXXXXXXXXXXXXX",
"XXXXXXXXXXXXXX---------------     ;>1ppasddddddddd88888888888888=================88 --XXXXXXXXXXXXXX",
"XXXXXXXXXXXXXX---------------     ;>1ppasddddddddd88888888888888=================88 --XXXXXXXXXXXXXX",
"XXXXXXXXXXXXXX--------------- .   tyuppasdddddddddd88888888888888888888888888888888 --XXXXXXXXXXXXXX",
"XXXXXXXXXXXXXX--------------- .   tyippasddddddddddddd88888888888888888888888888888 --XXXXXXXXXXXXXX",
"XXXXXXXXXXXXXX--------------- .   tyuppasdddddddddddddddddd8888888888888888888888  ---XXXXXXXXXXXXXX",
"XXXXXXXXXXXXXX--------------- .   tyippasddddddddddddddddddddddd88888888888888888  ---XXXXXXXXXXXXXX",
"XXXXXXXXXXXXXX--------------- .   90qwwerrrrrrrrrdddddddddddddddddddddddd88888888  ---XXXXXXXXXXXXXX",
"XXXXXXXXXXXXXX--------------- .   90qwwerrrrrrrrrrrdddddddddddddddddddddddddddddd  ---XXXXXXXXXXXXXX",
"----------------------------- .   90qwwerrrrrrrrrrrdddddddddddddddddddddddddddddd  ---XXXXXXXXXXXXXX",
"----------------------------- .   90qwwerrrrrrrrrrrrddddddddddddddddddddddddddddd  ---XXXXXXXXXXXXXX",
"----------------------------- .   90qwwerrrrrrrrrrrrrrrrrrddddddddddddddddddddddd  ---XXXXXXXXXXXXXX",
"----------------------------- .   fxvbbmNNNNNNNrrrrrrrrrrrrrrrrrrdddddddddddddddd  ---XXXXXXXXXXXXXX",
"----------------------------- .   fxvnnMNNNNNNNNNNrrrrrrrrrrrrrrrrrrrrrddddddddd -----XXXXXXXXXXXXXX",
"----------------------------- .   fxvbbmNNNNNNNNNNNrrrrrrrrrrrrrrrrrrrrrrrrrrrrr -----XXXXXXXXXXXXXX",
"-----------------------------     fcvnnMNNNNNNNNNNNNNNNrrrrrrrrrrrrrrrrrrrrrrrrr -----XXXXXXXXXXXXXX",
"-----------------------------     fcvnnMNNNNNNNNNNNNNNNrrrrrrrrrrrrrrrrrrrrrrrrr -----XXXXXXXXXXXXXX",
"-----------------------------     hkzVVZSDGGHJJJJJJJNNNNNNNNNNNNNNNNrrrrrrrrrrrr -----XXXXXXXXXXXXXX",
"-----------------------------     hjzBBZADGGHJJJJJJJNNNNNNNNNNNNNNNNNNNrrrrrrrrr -----XXXXXXXXXXXXXX",
"-----------------------------     gjlBBCADFF       JJJJNNNNNNNNNNNNNNNNNNNrrrrr ------XXXXXXXXXXXXXX",
"-----------------------------               -------   JJJJJNNNNNNNNNNNNNNNNNNNN ------XXXXXXXXXXXXXX",
"-----------------------------     XXXXXXXXX----------- JJJJJJJJJJNNNNNNNNNNNNNN ------XXXXXXXXXXXXXX",
"-----------------------------     XXXXXXXXX------------ JJJJJJJJJJJJJNNNNNNNNN -------XXXXXXXXXXXXXX",
"XXXXXXXXXXXXXX---------------     --------------------- JJJJJJJJJJJJJNNNNNNNNN XXXXXXX--------------",
"XXXXXXXXXXXXXX---------------     ----------------------  JJJJJJJJJJJJJJJJJJJJ XXXXXXX--------------",
"XXXXXXXXXXXXXX---------------     ------------------------ JJJJJJJJJJJJJJJJJJJ XXXXXXX--------------",
"XXXXXXXXXXXXXX---------------.    ------------------------- JJJJJJJJJJJJJJ    XXXXXXXX--------------",
"XXXXXXXXXXXXXX---------------.    --------------------------              XXXXXXXXXXXX--------------",
"XXXXXXXXXXXXXX---------------.    -------------------------------------XXXXXXXXXXXXXXX--------------",
"XXXXXXXXXXXXXX---------------.    -------------------------------------XXXXXXXXXXXXXXX--------------",
"XXXXXXXXXXXXXX---------------.    -------------------------------------XXXXXXXXXXXXXXX--------------",
"XXXXXXXXXXXXXX---------------.    -------------------------------------XXXXXXXXXXXXXXX--------------",
"XXXXXXXXXXXXXX---------------.    -------------------------------------XXXXXXXXXXXXXXX--------------",
"XXXXXXXXXXXXXX---------------.    -------------------------------------XXXXXXXXXXXXXXX--------------",
"XXXXXXXXXXXXXX---------------.    -------------------------------------XXXXXXXXXXXXXXX--------------",
"XXXXXXXXXXXXXX---------------.    -------------------------------------XXXXXXXXXXXXXXX--------------",
"XXXXXXXXXXXXXX---------------.    -------------------------------------XXXXXXXXXXXXXXX--------------",
"XXXXXXXXXXXXXX---------------     -------------------------------------XXXXXXXXXXXXXXX--------------",
"-----------------------------     ---------XXXXXXXXXXXXXX-----------------------------XXXXXXXXXXXXXX",
"-----------------------------     ---------XXXXXXXXXXXXXX-----------------------------XXXXXXXXXXXXXX",
"-----------------------------   ..---------XXXXXXXXXXXXXX-----------------------------XXXXXXXXXXXXXX",
"-----------------------------   ..---------XXXXXXXXXXXXXX-----------------------------XXXXXXXXXXXXXX",
"-----------------------------   ..---------XXXXXXXXXXXXXX-----------------------------XXXXXXXXXXXXXX",
"-----------------------------   ..---------XXXXXXXXXXXXXX-----------------------------XXXXXXXXXXXXXX",
"-----------------------------   ..---------XXXXXXXXXXXXXX-----------------------------XXXXXXXXXXXXXX",
"-----------------------------   ..---------XXXXXXXXXXXXXX-----------------------------XXXXXXXXXXXXXX",
"-----------------------------   ..---------XXXXXXXXXXXXXX-----------------------------XXXXXXXXXXXXXX",
"-----------------------------   ..---------XXXXXXXXXXXXXX-----------------------------XXXXXXXXXXXXXX",
"-----------------------------   ..---------XXXXXXXXXXXXXX-----------------------------XXXXXXXXXXXXXX",
"-----------------------------   ..---------XXXXXXXXXXXXXX-----------------------------XXXXXXXXXXXXXX",
"-----------------------------   ..---------XXXXXXXXXXXXXX-----------------------------XXXXXXXXXXXXXX",
"-----------------------------   ..---------XXXXXXXXXXXXXX-----------------------------XXXXXXXXXXXXXX",
"--------------XXXXXXXXXXXXXXX  .  -------------------------------------XXXXXXXXXXXXXXX--------------",
"--------------XXXXXXXXXXXXXXX  .  -------------------------------------XXXXXXXXXXXXXXX--------------",
"--------------XXXXXXXXXXXXXXX  .  -------------------------------------XXXXXXXXXXXXXXX--------------",
"--------------XXXXXXXXXXXXXXX  .  -------------------------------------XXXXXXXXXXXXXXX--------------",
"--------------XXXXXXXXXXXXXXX  .  -------------------------------------XXXXXXXXXXXXXXX--------------",
"--------------XXXXXXXXXXXXXXX  .  -------------------------------------XXXXXXXXXXXXXXX--------------",
"--------------XXXXXXXXXXXXXXX  .  -------------------------------------XXXXXXXXXXXXXXX--------------",
"--------------XXXXXXXXXXXXXXX     -------------------------------------XXXXXXXXXXXXXXX--------------",
"--------------XXXXXXXXXXXXXXX     -------------------------------------XXXXXXXXXXXXXXX--------------",
"--------------XXXXXXXXXXXXXXX     -------------------------------------XXXXXXXXXXXXXXX--------------",
"--------------XXXXXXXXXXXXXXX     -------------------------------------XXXXXXXXXXXXXXX--------------",
"--------------XXXXXXXXXXXXXXX     -------------------------------------XXXXXXXXXXXXXXX--------------",
"--------------XXXXXXXXXXXXXXX     -------------------------------------XXXXXXXXXXXXXXX--------------",
"--------------XXXXXXXXXXXXXXX .   -------------------------------------XXXXXXXXXXXXXXX--------------",
"--------------XXXXXXXXXXXXXXX .   -------------------------------------XXXXXXXXXXXXXXX--------------",
"----------------------------- .   XXXXXXXXX---------------------------------------------------------",
"----------------------------- .   XXXXXXXXX---------------------------------------------------------",
"----------------------------- .   XXXXXXXXX---------------------------------------------------------",
"----------------------------- .   XXXXXXXXX---------------------------------------------------------",
"----------------------------- .   XXXXXXXXX---------------------------------------------------------",
"----------------------------- ..  XXXXXXXXX---------------------------------------------------------",
"-----------------------------X  XXXXXXXXXXX---------------------------------------------------------",
"-----------------------------XXXXXXXXXXXXXX---------------------------------------------------------",
"-----------------------------XXXXXXXXXXXXXX---------------------------------------------------------",
"-----------------------------XXXXXXXXXXXXXX---------------------------------------------------------",
"-----------------------------XXXXXXXXXXXXXX---------------------------------------------------------",
"-----------------------------XXXXXXXXXXXXXX---------------------------------------------------------",
"-----------------------------XXXXXXXXXXXXXX---------------------------------------------------------"
};
