/* XPM */
static char *_39f2e021baf48f0cf0a6eac91811d97TcYLZN8zKIgOZOr0[] = {
/* columns rows colors chars-per-pixel */
"100 100 4 1 ",
"  c None",
". c #C62828",
"X c #78909C",
"o c #B0BEC5",
/* pixels */
"                                                                                                    ",
"                                                                                                    ",
"                                                                                                    ",
"                                                                                                    ",
"                          ................................                                          ",
"                          ................................                                          ",
"                          ................................                                          ",
"                          ................................                                          ",
"                          ................................                                          ",
"                          ................................                                          ",
"                          ................................                                          ",
"                          ................................                                          ",
"                          ................................                                          ",
"                          ................................                                          ",
"                          ................................                                          ",
"                          ................................                                          ",
"                          ................................                                          ",
"                          ................................................                          ",
"                          ................................................                          ",
"                          ................................................                          ",
"                          ................................................                          ",
"                          ................................................                          ",
"                          ................................................                          ",
"                          ................................................                          ",
"                          ................................................                          ",
"                          ................................................                          ",
"                          ................................................                          ",
"                          ................................................                          ",
"                          ................................................                          ",
"                          ................................................                          ",
"                          ................................................................          ",
"                          ................................................................          ",
"                          ................................................................          ",
"                          ................................................................          ",
"                          ................................................................          ",
"                          ................................................................          ",
"                          ................................................................          ",
"                          ................................................................          ",
"                          ................................................................          ",
"                          ................................................................          ",
"                          ................................................................          ",
"                          ................................................................          ",
"                          ................................................................          ",
"                          oooooooooooooooo                                                          ",
"                          oooooooooooooooo                                                          ",
"                          oooooooooooooooo                                                          ",
"                          oooooooooooooooo                                                          ",
"                          oooooooooooooooo                                                          ",
"                          oooooooooooooooo                                                          ",
"                          oooooooooooooooo                                                          ",
"                          oooooooooooooooo                                                          ",
"                          oooooooooooooooo                                                          ",
"                          oooooooooooooooo                                                          ",
"                          oooooooooooooooo                                                          ",
"                          oooooooooooooooo                                                          ",
"                          oooooooooooooooo                                                          ",
"                          oooooooooooooooo                                                          ",
"                          oooooooooooooooo                                                          ",
"                          oooooooooooooooo                                                          ",
"                          oooooooooooooooo                                                          ",
"                          oooooooooooooooo                                                          ",
"                          oooooooooooooooo                                                          ",
"                          oooooooooooooooo                                                          ",
"                          oooooooooooooooo                                                          ",
"                          oooooooooooooooo                                                          ",
"                          oooooooooooooooo                                                          ",
"                          oooooooooooooooo                                                          ",
"                          oooooooooooooooo                                                          ",
"                          oooooooooooooooo                                                          ",
"                          oooooooooooooooo                                                          ",
"                          oooooooooooooooo                                                          ",
"                          oooooooooooooooo                                                          ",
"                          oooooooooooooooo                                                          ",
"                          oooooooooooooooo                                                          ",
"                          oooooooooooooooo                                                          ",
"                          oooooooooooooooo                                                          ",
"                          oooooooooooooooo                                                          ",
"                          oooooooooooooooo                                                          ",
"                          oooooooooooooooo                                                          ",
"                          oooooooooooooooo                                                          ",
"                          oooooooooooooooo                                                          ",
"          XXXXXXXXXXXXXXXXXXXXXXXXXXXXXXXXXXXXXXXXXXXXXXXX                                          ",
"          XXXXXXXXXXXXXXXXXXXXXXXXXXXXXXXXXXXXXXXXXXXXXXXX                                          ",
"          XXXXXXXXXXXXXXXXXXXXXXXXXXXXXXXXXXXXXXXXXXXXXXXX                                          ",
"          XXXXXXXXXXXXXXXXXXXXXXXXXXXXXXXXXXXXXXXXXXXXXXXX                                          ",
"          XXXXXXXXXXXXXXXXXXXXXXXXXXXXXXXXXXXXXXXXXXXXXXXX                                          ",
"          XXXXXXXXXXXXXXXXXXXXXXXXXXXXXXXXXXXXXXXXXXXXXXXX                                          ",
"          XXXXXXXXXXXXXXXXXXXXXXXXXXXXXXXXXXXXXXXXXXXXXXXX                                          ",
"          XXXXXXXXXXXXXXXXXXXXXXXXXXXXXXXXXXXXXXXXXXXXXXXX                                          ",
"          XXXXXXXXXXXXXXXXXXXXXXXXXXXXXXXXXXXXXXXXXXXXXXXX                                          ",
"          XXXXXXXXXXXXXXXXXXXXXXXXXXXXXXXXXXXXXXXXXXXXXXXX                                          ",
"          XXXXXXXXXXXXXXXXXXXXXXXXXXXXXXXXXXXXXXXXXXXXXXXX                                          ",
"          XXXXXXXXXXXXXXXXXXXXXXXXXXXXXXXXXXXXXXXXXXXXXXXX                                          ",
"          XXXXXXXXXXXXXXXXXXXXXXXXXXXXXXXXXXXXXXXXXXXXXXXX                                          ",
"                                                                                                    ",
"                                                                                                    ",
"                                                                                                    ",
"                                                                                                    ",
"                                                                                                    ",
"                                                                                                    "
};
