/* XPM */
static char *_5eae9878f254be3df39dedc63722960X5dw6Id9cIY9XBvc[] = {
/* columns rows colors chars-per-pixel */
"100 100 8 1 ",
"  c None",
". c black",
"X c #656565",
"o c #717171",
"O c #7E7E7E",
"+ c #D50000",
"@ c #8D8D8D",
"# c gray62",
/* pixels */
"                                                                                                    ",
"                                                                                                    ",
"                                                                                                    ",
"                                                                                                    ",
"                                       ..................................                           ",
"                                       ..................................                           ",
"                                       ..................................                           ",
"                                       ..................................                           ",
"                                  .....++++++++++++++++++++++++++++++++++.....                      ",
"                                  .....++++++++++++++++++++++++++++++++++.....                      ",
"                                  .....++++++++++++++++++++++++++++++++++.....                      ",
"                                  .....++++++++++++++++++++++++++++++++++.....                      ",
"                                  .....++++++++++++++++++++++++++++++++++.....                      ",
"                             .....++++++++++++++++++++++++++++++++++++++++++++.....                 ",
"                             .....++++++++++++++++++++++++++++++++++++++++++++.....                 ",
"                             .....++++++++++++++++++++++++++++++++++++++++++++.....                 ",
"                             .....++++++++++++++++++++++++++++++++++++++++++++.....                 ",
"                   ...............++++++++++++++++++++++++++++++++++++++++++++.....                 ",
"                   ...............++++++++++++++++++++++++++++++++++++++++++++.....                 ",
"                   ...............++++++++++++++++++++++++++++++++++++++++++++.....                 ",
"                   ...............++++++++++++++++++++++++++++++++++++++++++++.....                 ",
"                   ...............++++++++++++++++++++++++++++++++++++++++++++.....                 ",
"              .....++++++++++.....+++++++++++++++++++..............................                 ",
"              .....++++++++++.....+++++++++++++++++++..............................                 ",
"              .....++++++++++.....+++++++++++++++++++..............................                 ",
"              .....++++++++++.....+++++++++++++++++++..............................                 ",
"              .....++++++++++.....++++++++++++++.....#####@@@@@OOOOOoooooXXXXX.....                 ",
"              .....++++++++++.....++++++++++++++.....#####@@@@@OOOOOoooooXXXXX.....                 ",
"              .....++++++++++.....++++++++++++++.....#####@@@@@OOOOOoooooXXXXX.....                 ",
"              .....++++++++++.....++++++++++++++.....#####@@@@@OOOOOoooooXXXXX.....                 ",
"              .....++++++++++.....++++++++++++++.....@@@@@OOOOOoooooXXXXXXXXXX.....                 ",
"              .....++++++++++.....++++++++++++++.....@@@@@OOOOOoooooXXXXXXXXXX.....                 ",
"              .....++++++++++.....++++++++++++++.....@@@@@OOOOOoooooXXXXXXXXXX.....                 ",
"              .....++++++++++.....++++++++++++++.....@@@@@OOOOOoooooXXXXXXXXXX.....                 ",
"              .....++++++++++.....++++++++++++++.....@@@@@OOOOOoooooXXXXXXXXXX.....                 ",
"              .....++++++++++.....++++++++++++++.....OOOOOoooooXXXXXXXXXXXXXXX.....                 ",
"              .....++++++++++.....++++++++++++++.....OOOOOoooooXXXXXXXXXXXXXXX.....                 ",
"              .....++++++++++.....++++++++++++++.....OOOOOoooooXXXXXXXXXXXXXXX.....                 ",
"              .....++++++++++.....++++++++++++++.....OOOOOoooooXXXXXXXXXXXXXXX.....                 ",
"              .....++++++++++.....+++++++++++++++++++..............................                 ",
"              .....++++++++++.....+++++++++++++++++++..............................                 ",
"              .....++++++++++.....+++++++++++++++++++..............................                 ",
"              .....++++++++++.....+++++++++++++++++++..............................                 ",
"              .....++++++++++.....++++++++++++++++++++++++++++++++++++++++++++.....                 ",
"              .....++++++++++.....++++++++++++++++++++++++++++++++++++++++++++.....                 ",
"              .....++++++++++.....++++++++++++++++++++++++++++++++++++++++++++.....                 ",
"              .....++++++++++.....++++++++++++++++++++++++++++++++++++++++++++.....                 ",
"              .....++++++++++.....++++++++++++++++++++++++++++++++++++++++++++.....                 ",
"              .....++++++++++.....++++++++++++++++++++++++++++++++++++++++++++.....                 ",
"              .....++++++++++.....++++++++++++++++++++++++++++++++++++++++++++.....                 ",
"              .....++++++++++.....++++++++++++++++++++++++++++++++++++++++++++.....                 ",
"              .....++++++++++.....++++++++++++++++++++++++++++++++++++++++++++.....                 ",
"              .....++++++++++.....++++++++++++++++++++++++++++++++++++++++++++.....                 ",
"              .....++++++++++.....++++++++++++++++++++++++++++++++++++++++++++.....                 ",
"              .....++++++++++.....++++++++++++++++++++++++++++++++++++++++++++.....                 ",
"              .....++++++++++.....++++++++++++++++++++++++++++++++++++++++++++.....                 ",
"              .....++++++++++.....++++++++++++++++++++++++++++++++++++++++++++.....                 ",
"              ....................++++++++++++++++++++++++++++++++++++++++++++.....                 ",
"              ....................++++++++++++++++++++++++++++++++++++++++++++.....                 ",
"              ....................++++++++++++++++++++++++++++++++++++++++++++.....                 ",
"              ....................++++++++++++++++++++++++++++++++++++++++++++.....                 ",
"                             .....++++++++++++++++++++++++++++++++++++++++++++.....                 ",
"                             .....++++++++++++++++++++++++++++++++++++++++++++.....                 ",
"                             .....++++++++++++++++++++++++++++++++++++++++++++.....                 ",
"                             .....++++++++++++++++++++++++++++++++++++++++++++.....                 ",
"                             .....++++++++++++++++++++++++++++++++++++++++++++.....                 ",
"                             .....++++++++++++++++++++++++++++++++++++++++++++.....                 ",
"                             .....++++++++++++++++++++++++++++++++++++++++++++.....                 ",
"                             .....++++++++++++++++++++++++++++++++++++++++++++.....                 ",
"                             .....++++++++++++++++++++++++++++++++++++++++++++.....                 ",
"                                  ............................................                      ",
"                                  ............................................                      ",
"                                  ............................................                      ",
"                                  ............................................                      ",
"                                       .....++++.....     .....+++++.....                           ",
"                                       .....++++.....     .....+++++.....                           ",
"                                       .....++++.....     .....+++++.....                           ",
"                                       .....++++.....     .....+++++.....                           ",
"                                       .....++++.....     .....+++++.....                           ",
"                                       .....++++.....     .....+++++.....                           ",
"                                       .....++++.....     .....+++++.....                           ",
"                                       .....++++.....     .....+++++.....                           ",
"                                       .....++++.....     .....+++++.....                           ",
"                                       .....++++.....     .....+++++.....                           ",
"                                       .....++++.....     .....+++++.....                           ",
"                                       .....++++.....     .....+++++.....                           ",
"                                       .....++++.....     .....+++++.....                           ",
"                                       .....++++.....     .....+++++.....                           ",
"                                       .....++++.....     .....+++++.....                           ",
"                                       .....++++.....     .....+++++.....                           ",
"                                       .....++++.....     .....+++++.....                           ",
"                                       .....++++.....     .....+++++.....                           ",
"                                       ..............     ...............                           ",
"                                       ..............     ...............                           ",
"                                       ..............     ...............                           ",
"                                       ..............     ...............                           ",
"                                                                                                    ",
"                                                                                                    ",
"                                                                                                    ",
"                                                                                                    "
};
