/* XPM */
static char *bde3548605a1481ee6b182982bd04f1cmNMcyzQtg2SdPNrx[] = {
/* columns rows colors chars-per-pixel */
"100 100 4 1 ",
"  c black",
". c #6B331B",
"X c #9C5A3C",
"o c white",
/* pixels */
"XXXXXXXXXXXXXX...............XXXXXXXXXXXXXX..............XXXXXXXXXXXXXXXXXXXXXXXXXXXXXXXXXXXXXXXXXXX",
"XXXXXXXXXXXXXX...............XXXXXXXXXXXXXX..............XXXXXXXXXXXXXXXXXXXXXXXXXXXXXXXXXXXXXXXXXXX",
"XXXXXXXXXXXXXX...............XXXXXXXXXXXXXX..............XXXXXXXXXXXXXXXXXXXXXXXXXXXXXXXXXXXXXXXXXXX",
"XXXXXXXXXXXXXX...............XXXXXXXXXXXXXX..............XXXXXXXXXXXXXXXXXXXXXXXXXXXXXXXXXXXXXXXXXXX",
"XXXXXXXXXXXXXX...............XXXXXXXXXXXXXX..............XXXXXXXXXXXXXXXXXXXXXXXXXXXXXXXXXXXXXXXXXXX",
"XXXXXXXXXXXXXX...............XXXXXXXXXXXXXX..............XXXXXXXXXXXXXXXXXXXXXXXXXXXXXXXXXXXXXXXXXXX",
"XXXXXXXXXXXXX               .XXXXXXXXXX                      XXXXXXXXXXX               XXXXXXXXXXXXX",
"XXXXXXXXXXXXX               .XXXXXXXXXX                      XXXXXXXXXXX               XXXXXXXXXXXXX",
"XXXXXXXXXXXXX               .XXXXXXXXXX                      XXXXXXXXXXX               XXXXXXXXXXXXX",
"XXXXXXXXXXXXX               .XXXXXXXXXX                      XXXXXXXXXXX               XXXXXXXXXXXXX",
"XXXXXXXXX                              oooooooooooooooooooooo                              XXXXXXXXX",
"XXXXXXXXX                              oooooooooooooooooooooo                              XXXXXXXXX",
"XXXXXXXXX                              oooooooooooooooooooooo                              XXXXXXXXX",
"XXXXXXXXX               oooooooooooooooooooooooooooooooooooooooooooooooooooo               XXXXXXXXX",
".........               oooooooooooooooooooooooooooooooooooooooooooooooooooo               .........",
".........               oooooooooooooooooooooooooooooooooooooooooooooooooooo               .........",
".........               oooooooooooooooooooooooooooooooooooooooooooooooooooo               .........",
".........           oooooooooooooooooooooooooooooooooooooooooooooooooooooooooooo           .........",
".........           oooooooooooooooooooooooooooooooooooooooooooooooooooooooooooo           .........",
".........           oooooooooooooooooooooooooooooooooooooooooooooooooooooooooooo           .........",
".........           oooooooooooooooooooooooooooooooooooooooooooooooooooooooooooo           .........",
".........       oooooooooooooooooooooooooooooooooooooooooooooooooooooooooooooooooooo       .........",
".........       oooooooooooooooooooooooooooooooooooooooooooooooooooooooooooooooooooo       .........",
".........       oooooooooooooooooooooooooooooooooooooooooooooooooooooooooooooooooooo       .........",
".............   oooooooooooooooooooooooooooooooooooooooooooooooooooooooooooooooooooo   .............",
".............   oooooooooooooooooooooooooooooooooooooooooooooooooooooooooooooooooooo   .............",
".............   oooooooooooooooooooooooooooooooooooooooooooooooooooooooooooooooooooo   .............",
".............   oooooooooooooooooooooooooooooooooooooooooooooooooooooooooooooooooooo   .............",
"..............XX    oooooooooooooooooooooooooooooooooooooooooooooooooooooooooooo    XX..............",
"XXXXXXXXXXXXXXXX    oooooooooooooooooooooooooooooooooooooooooooooooooooooooooooo    XX..............",
"XXXXXXXXXXXXXXXX    oooooooooooooooooooooooooooooooooooooooooooooooooooooooooooo    XX..............",
"XXXXXXXXXXXXXXXX    ooooooooooo            oooooooooooooo            ooooooooooo    XX..............",
"XXXXXXXXXXXXXXXX    ooooooooooo            oooooooooooooo            ooooooooooo    XX..............",
"XXXXXXXXXXXXXXXX    ooooooooooo            oooooooooooooo            ooooooooooo    XX..............",
"XXXXXXXXXXXXXXXX    ooooooooooo            oooooooooooooo            ooooooooooo    XX..............",
"XXXXXXXXXXXXXXXX    oooooooo           oooo   oooooooo           oooo   oooooooo    XX..............",
"XXXXXXXXXXXXXXXX    oooooooo           oooo   oooooooo           oooo   oooooooo    XX..............",
"XXXXXXXXXXXXXXXX    oooooooo           oooo   oooooooo           oooo   oooooooo    XX..............",
"XXXXXXXXXXXXXXXX    oooooooo           oooo   oooooooo           oooo   oooooooo    XX..............",
"XXXXXXXXXXXXXXXX    oooooooo       oooo       oooooooo       oooo       oooooooo    XX..............",
"XXXXXXXXXXXXXXXX    oooooooo       oooo       oooooooo       oooo       oooooooo    XX..............",
"XXXXXXXXXXXXXXXX    oooooooo       oooo       oooooooo       oooo       oooooooo    XX..............",
"XXXXXXXXXXXXXXXX    ooooooooooo            oooooooooooooo            ooooooooooo    XX..............",
"..............XX    ooooooooooo            oooooooooooooo            ooooooooooo    ..XXXXXXXXXXXXXX",
"..............XX    ooooooooooo            oooooooooooooo            ooooooooooo    ..XXXXXXXXXXXXXX",
"..............XX    ooooooooooo            oooooooooooooo            ooooooooooo    ..XXXXXXXXXXXXXX",
"..............XX    oooooooooooooooooooooooooo        oooooooooooooooooooooooooo    ..XXXXXXXXXXXXXX",
"..............XX    oooooooooooooooooooooooooo        oooooooooooooooooooooooooo    ..XXXXXXXXXXXXXX",
"..............XX    oooooooooooooooooooooooooo        oooooooooooooooooooooooooo    ..XXXXXXXXXXXXXX",
"..............XX    oooooooooooooooooooooooooo        oooooooooooooooooooooooooo    ..XXXXXXXXXXXXXX",
"..............XXXXXX    oooooooooooooooooooooo        oooooooooooooooooooooo    ......XXXXXXXXXXXXXX",
"..............XXXXXX    oooooooooooooooooooooo        oooooooooooooooooooooo    ......XXXXXXXXXXXXXX",
"..............XXXXXX    oooooooooooooooooooooo        oooooooooooooooooooooo    ......XXXXXXXXXXXXXX",
"..............XX            oooooooooooooooooooooooooooooooooooooooooooo            ..XXXXXXXXXXXXXX",
"..............XX            oooooooooooooooooooooooooooooooooooooooooooo            ..XXXXXXXXXXXXXX",
"..............XX            oooooooooooooooooooooooooooooooooooooooooooo            ..XXXXXXXXXXXXXX",
"..............XX            oooooooooooooooooooooooooooooooooooooooooooo            ..XXXXXXXXXXXXXX",
".............                                                                          XXXXXXXXXXXXX",
"XXXXXXXXXXXXX                                                                          .............",
"XXXXXXXXXXXXX                                                                          .............",
"XXXXXXXXXXXXX                                                                          .............",
"XXXXXXXXX                                                                                  .........",
"XXXXXXXXX                                                                                  .........",
"XXXXXXXXX                                                                                  .........",
"XXXXXXXXX                   oooooooooooooooooooooooooooooooooooooooooooo                   .........",
"XXXXXXXXX                   oooooooooooooooooooooooooooooooooooooooooooo                   .........",
"XXXXXXXXX                   oooooooooooooooooooooooooooooooooooooooooooo                   .........",
"XXXXXXXXX                   oooooooooooooooooooooooooooooooooooooooooooo                   .........",
"XXXXXXXXXXXXX               oooooooooooooooooooooooooooooooooooooooooooo               .............",
"XXXXXXXXXXXXX               oooooooooooooooooooooooooooooooooooooooooooo               .............",
"XXXXXXXXXXXXX               oooooooooooooooooooooooooooooooooooooooooooo               .............",
"XXXXXXXXXXXXX               oooooooooooooooooooooooooooooooooooooooooooo               .............",
"XXXXXXXXXXXXXX..        oooooooooooooooooooooooooooooooooooooooooooooooooooo        ..XXXXXXXXXXXXXX",
"XXXXXXXXXXXXXX..        oooooooooooooooooooooooooooooooooooooooooooooooooooo        ..XXXXXXXXXXXXXX",
"XXXXXXXXXXXXXX..        oooooooooooooooooooooooooooooooooooooooooooooooooooo        ..XXXXXXXXXXXXXX",
"XXXXXXXXXXXXXX..........    oooooooooooooooooooooooooooooooooooooooooooo    ..........XXXXXXXXXXXXXX",
"XXXXXXXXXXXXXX..........    oooooooooooooooooooooooooooooooooooooooooooo    ..........XXXXXXXXXXXXXX",
"XXXXXXXXXXXXXX..........    oooooooooooooooooooooooooooooooooooooooooooo    ..........XXXXXXXXXXXXXX",
"XXXXXXXXXXXXXX..........    oooooooooooooooooooooooooooooooooooooooooooo    ..........XXXXXXXXXXXXXX",
"XXXXXXXXXXXXXX..........    oooooooooooooooooooooooooooooooooooooooooooo    ..........XXXXXXXXXXXXXX",
"XXXXXXXXXXXXXX..........    oooooooooooooooooooooooooooooooooooooooooooo    ..........XXXXXXXXXXXXXX",
"XXXXXXXXXXXXXX..........    oooooooooooooooooooooooooooooooooooooooooooo    ..........XXXXXXXXXXXXXX",
"XXXXXXXXXXXXXX..............                                            ..............XXXXXXXXXXXXXX",
"XXXXXXXXXXXXXX..............                                            ..............XXXXXXXXXXXXXX",
"XXXXXXXXXXXXXX..............                                            ..............XXXXXXXXXXXXXX",
"XXXXXXXXXXXXXX..............                                            ..............XXXXXXXXXXXXXX",
"XXXXXXXXXXXXXX..............                                            ..............XXXXXXXXXXXXXX",
"XXXXXXXXXXXXXXXXXXXXXXXXXXXX                                            XXXXXXXXXXXXXXXXXXXXXXXXXXXX",
"XXXXXXXXXXXXXXXXXXXXXXXXXXXX                                            XXXXXXXXXXXXXXXXXXXXXXXXXXXX",
"XXXXXXXXXXXXXXXXXXXXXXXXXXXX                                            XXXXXXXXXXXXXXXXXXXXXXXXXXXX",
"XXXXXXXXXXXXXXXXXXXXXXXXXXXX                  XXXXXXXX                  XXXXXXXXXXXXXXXXXXXXXXXXXXXX",
"XXXXXXXXXXXXXXXXXXXXXXXXXXXX                  XXXXXXXX                  XXXXXXXXXXXXXXXXXXXXXXXXXXXX",
"XXXXXXXXXXXXXXXXXXXXXXXXXXXX                  XXXXXXXX                  XXXXXXXXXXXXXXXXXXXXXXXXXXXX",
"XXXXXXXXXXXXXXXXXXXXXXXXXXXX                  XXXXXXXX                  XXXXXXXXXXXXXXXXXXXXXXXXXXXX",
"XXXXXXXXXXXXXXXXXXXXXXXXXXXX                  XXXXXXXX                  XXXXXXXXXXXXXXXXXXXXXXXXXXXX",
"XXXXXXXXXXXXXXXXXXXXXXXXXXXX                  XXXXXXXX                  XXXXXXXXXXXXXXXXXXXXXXXXXXXX",
"XXXXXXXXXXXXXXXXXXXXXXXXXXXX                  XXXXXXXX                  XXXXXXXXXXXXXXXXXXXXXXXXXXXX",
"XXXXXXXXXXXXXXXXXXXXXXXXXXXXX..............XXXXXXXXXXXXXXXXXXXXXXXXXXXXXXXXXXXXXXXXXXXXXXXXXXXXXXXXX",
"XXXXXXXXXXXXXXXXXXXXXXXXXXXXX..............XXXXXXXXXXXXXXXXXXXXXXXXXXXXXXXXXXXXXXXXXXXXXXXXXXXXXXXXX",
"XXXXXXXXXXXXXXXXXXXXXXXXXXXXX..............XXXXXXXXXXXXXXXXXXXXXXXXXXXXXXXXXXXXXXXXXXXXXXXXXXXXXXXXX"
};
