/* XPM */
static char *_8fc7a5a63f1410d8787eb6d9115e2bcscN1813qMdymk67a[] = {
/* columns rows colors chars-per-pixel */
"100 100 12 1 ",
"  c #6B331B",
". c #105710",
"X c #237023",
"o c #9C5A3C",
"O c #9E4265",
"+ c #0BB813",
"@ c #289128",
"# c #FFC90E",
"$ c #FFF200",
"% c #C9FF42",
"& c #E0578B",
"* c #F26F9B",
/* pixels */
"oooooooooooooo               oooooOOOOOOOoo              ooooooooooooooooooooooooooooooooooooooooooo",
"oooooooooooooo               oooooOOOOOOOoo              ooooooooooooooooooooooooooooooooooooooooooo",
"oooooooooooooo               oooooOOOOOOOoo              ooooooooooooooooooooooooooooooooooooooooooo",
"oooooooooooooo               ooOOO&&&&***OOOO.................oooooooooooooooooooooooooooooooooooooo",
"oooooooooooooo               ooOOO&&&&***OOOO.................oooooooooooooooooooooooooooooooooooooo",
"oooooooooooooo               ooOOO&&&&***OOOO.................oooooooooooooooooooooooooooooooooooooo",
"oooooooooooooo              OOOOOO&&&&***OOOOOOO@@@@XXXXXXX%%%....oooooooooooooooooooooooooooooooooo",
"oooooooooooooo              OOOOOO&&&&***OOOOOOO@@@@XXXXXXX%%%....oooooooooooooooooooooooooooooooooo",
"oooooooooooooo              OOOOOO&&&&***OOOOOOO@@@@XXXXXXX%%%....oooooooooooooooooooooooooooooooooo",
"oooooooooooooo          OOOO******####$$$****&&&OOOO++++++++++....oooooooooooooooooooooooooooooooooo",
"oooooooooooooo          OOOO******####$$$****&&&OOOO++++++++++....oooooooooooooooooooooooooooooooooo",
"oooooooooooooo          OOOO******####$$$****&&&OOOO++++++++++....oooooooooooooooooooooooooooooooooo",
"oooooooooooooo          OOOO&&&&&&#######&&&&&&&OOOO++++++++++....oooooooooooooooooooooooooooooooooo",
"oooooooooooooo          OOOO&&&&&&#######&&&&&&&OOOO++++++++++....oooooooooooooooooooooooooooooooooo",
"              ooooooooooOOOO&&&&&&#######&&&&&&&OOOO++++++++++....     ooooooooooooooo              ",
"              ooooooooooooooOOOOOO&&&&***OOOOOOO++++++++++++++....     ooooooooooooooo              ",
"              ooooooooooooooOOOOOO&&&&***OOOOOOO++++++++++++++....     ooooooooooooooo              ",
"              ooooooooooooooOOOOOO&&&&***OOOOOOO++++++++++++++....     ooooooooooooooo              ",
"              oooooooooooooooooOOO&&&&&&&OOOO+++++++++++++++++....     ooooooooooooooo              ",
"              oooooooooooooooooOOO&&&&&&&OOOO+++++++++++++++++....     ooooooooooooooo              ",
"              oooooooooooooooooOOO&&&&&&&OOOO+++++++++++++++++....     ooooooooooooooo              ",
"              ooooooooooooooooo...OOOOOOO+++++++++++%%%+++++++....     ooooooooooooooo              ",
"              ooooooooooooooooo...OOOOOOO+++++++++++%%%+++++++....     ooooooooooooooo              ",
"              ooooooooooooooooo...OOOOOOO+++++++++++%%%+++++++....     ooooooooooooooo              ",
"              ooooooooooooooooo...@@@@++++++++++++++++++++++++%%%%%%%  ooooooooooooooo              ",
"              ooooooooooooooooo...@@@@++++++++++++++++++++++++%%%%%%%  ooooooooooooooo              ",
"              ooooooooooooooooo...@@@@++++++++++++++++++++++++%%%%%%%  ooooooooooooooo              ",
"              ooooooooooooooooo...%%%%++++++++++++++++++++++++....     ooooooooooooooo              ",
"              ooooooooooooooooo...%%%%++++++++++++++++++++++++....     ooooooooooooooo              ",
"ooooooooooooooooooooooooooooo  ...%%%%++++++++++++++++++++++++....oooooooooooooooooooo              ",
"ooooooo..........oooooooooooo  ...@@@@+++++++...+++++++++++%%%....ooooooooooooooooo..........       ",
"ooooooo..........oooooooooooo  ...@@@@+++++++...+++++++++++%%%....ooooooooooooooooo..........       ",
"ooooooo..........oooooooooooo  ...@@@@+++++++...+++++++++++%%%....ooooooooooooooooo..........       ",
"ooo....@@@@@@@XXX....oooooooo  ...@@@@+++%%%%...++++++++++++++....ooooooooooooo....+++@@@@@@@....   ",
"ooo....@@@@@@@XXX....oooooooo  ...@@@@+++%%%%...++++++++++++++....ooooooooooooo....+++@@@@@@@....   ",
"ooo....@@@@@@@XXX....oooooooo  ...@@@@+++%%%%...++++++++++++++....ooooooooooooo....+++@@@@@@@....   ",
"ooo....@@@....+++....oooooooo  ...@@@@+++++++...++++++++++++++....ooooooooooooo....+++++++@@@....   ",
"ooo....@@@....+++....oooooooo  ...@@@@+++++++...++++++++++++++....ooooooooooooo....+++++++@@@....   ",
"ooo....@@@....+++....oooooooo  ...@@@@+++++++...++++++++++++++....ooooooooooooo....+++++++@@@....   ",
"%%%%%%%@@@....+++++++..........++++++++++++++...++++++++++++++....ooooooooooooo....+++....@@@%%%%   ",
"%%%%%%%@@@....+++++++..........++++++++++++++...++++++++++++++....ooooooooooooo....+++....@@@%%%%   ",
"%%%%%%%@@@....+++++++..........++++++++++++++...++++++++++++++....ooooooooooooo....+++....@@@%%%%   ",
"ooo....@@@....%%%++++++++++++++++++++++++++++...++++++++++++++....ooooooooooooo....+++....@@@%%%%%%%",
"   ....@@@....%%%++++++++++++++++++++++++++++...++++++++++++++....ooooo        ....+++....@@@%%%%%%%",
"   ....@@@....%%%++++++++++++++++++++++++++++...++++++++++++++....ooooo        ....+++....@@@%%%%%%%",
"   ....@@@....++++++++++%%%%+++++++++++++%%%%...++++++++++++++....ooooo        ....+++....@@@....ooo",
"   ....@@@....++++++++++%%%%+++++++++++++%%%%...++++++++++++++....ooooo        ....+++....@@@....ooo",
"   ....@@@....++++++++++%%%%+++++++++++++%%%%...++++++++++++++....ooooo        ....+++....@@@....ooo",
"       %%%@@@@XXX++++++++++++++++++++++++++++...++++++++++++++++++.............+++++++....@@@....ooo",
"       %%%@@@@XXX++++++++++++++++++++++++++++...++++++++++++++++++.............+++++++....@@@....ooo",
"       %%%@@@@XXX++++++++++++++++++++++++++++...++++++++++++++++++.............+++++++....@@@....ooo",
"       %%%@@@@XXX++++++++++++++++++++++++++++...++++++++++++++++++.............+++++++....@@@....ooo",
"   %%%%   ....@@@XXXX+++++++%%%++++++++++++++...+++++++++++++++++++++++++++++++++++%%%++++@@@....ooo",
"   %%%%   ....@@@XXXX+++++++%%%++++++++++++++...+++++++++++++++++++++++++++++++++++%%%++++@@@....ooo",
"   %%%%   ....@@@XXXX+++++++%%%++++++++++++++...+++++++++++++++++++++++++++++++++++%%%++++@@@....ooo",
"              ...@@@@@@@XXXXXXXXXX++++...++++...+++++++++++++++++++++%%%++++++++++++++XXXX@@@....ooo",
"              ...@@@@@@@XXXXXXXXXX++++...++++...+++++++++++++++++++++%%%++++++++++++++XXXX@@@....ooo",
"              ...@@@@@@@XXXXXXXXXX++++...++++...+++++++++++++++++++++%%%++++++++++++++XXXX@@@....ooo",
"ooooooooooooooooo.................XXXX...++++...+++++++%%%%+++++++++++++++++XXXXXXXXXXXXXX...       ",
"ooooooooooooooooo.................XXXX...++++...+++++++%%%%+++++++++++++++++XXXXXXXXXXXXXX...       ",
"ooooooooooooooooo.................XXXX...++++...+++++++%%%%+++++++++++++++++XXXXXXXXXXXXXX...       ",
"ooooooooooooooooooooooooooooooo...XXXX...+++++++++++++++++++++++++XXXXXXXXXXXXX...........          ",
"ooooooooooooooooooooooooooooooo...XXXX...+++++++++++++++++++++++++XXXXXXXXXXXXX...........          ",
"ooooooooooooooooooooooooooooooo...XXXX...+++++++++++++++++++++++++XXXXXXXXXXXXX...........          ",
"oooooooooooooooooooooooooooo%%%%%%XXXX...+++++++++++...+++++++++++.............ooooooo              ",
"oooooooooooooooooooooooooooo%%%%%%XXXX...+++++++++++...+++++++++++.............ooooooo              ",
"oooooooooooooooooooooooooooo%%%%%%XXXX...+++++++++++...+++++++++++.............ooooooo              ",
"ooooooooooooooooooooooooooooooo...XXXX...+++++++++++...+++++++....oooooooooooooooooooo              ",
"ooooooooooooooooooooooooooooooo...XXXX...+++++++++++...+++++++....oooooooooooooooooooo              ",
"ooooooooooooooooooooooooooooooo...XXXX...+++++++++++...+++++++....oooooooooooooooooooo              ",
"ooooooooooooooooooooooooooooooo...XXXX...++++%%%++++...+++++++....oooooooooooooooooooo              ",
"ooooooooooooooooooooooooooooooo...XXXX...++++%%%++++...+++++++....oooooooooooooooooooo              ",
"oooooooooooooo               oo...XXXX...++++%%%++++...+++++++....ooooo               oooooooooooooo",
"oooooooooooooo               oo...@@@@...+++++++++++...+++++++%%%%%%%oo               oooooooooooooo",
"oooooooooooooo               oo...@@@@...+++++++++++...+++++++%%%%%%%oo               oooooooooooooo",
"oooooooooooooo               oo...@@@@...+++++++++++...+++++++%%%%%%%oo               oooooooooooooo",
"oooooooooooooo               oo...%%%%...++++...++++...+++++++....ooooo               oooooooooooooo",
"oooooooooooooo               oo...%%%%...++++...++++...+++++++....ooooo               oooooooooooooo",
"oooooooooooooo               oo...%%%%...++++...++++...+++++++....ooooo               oooooooooooooo",
"oooooooooooooo               oo...@@@@...XXXX...++++...+++++++....ooooo               oooooooooooooo",
"oooooooooooooo               oo...@@@@...XXXX...++++...+++++++....ooooo               oooooooooooooo",
"oooooooooooooo               oo...@@@@...XXXX...++++...+++++++....ooooo               oooooooooooooo",
"oooooooooooooo               oo...@@@@...XXXX...++++...%%%%+++....ooooo               oooooooooooooo",
"oooooooooooooo               oo...@@@@...XXXX...++++...%%%%+++....ooooo               oooooooooooooo",
"oooooooooooooo               oo...@@@@...XXXX...++++...%%%%+++....ooooo               oooooooooooooo",
"oooooooooooooo               oo...@@@@...XXXX...++++...+++++++....ooooo               oooooooooooooo",
"oooooooooooooo               oo...@@@@...XXXX...++++...+++++++....ooooo               oooooooooooooo",
"ooooooooooooooooooooooooooooo  ...@@@@...XXXX...++++...+++++++....oooooooooooooooooooooooooooooooooo",
"ooooooooooooooooooooooooooooo  ...@@@@...XXXX...++++...+++++++....oooooooooooooooooooooooooooooooooo",
"ooooooooooooooooooooooooooooo  ...@@@@...XXXX...++++...+++++++....oooooooooooooooooooooooooooooooooo",
"ooooooooooooooooooooooooooooo  ...@@@@...XXXX...++++...+++++++....oooooooooooooooooooooooooooooooooo",
"ooooooooooooooooooooooooooooo  ...%%%%@@@@@@@XXXXXXX++++++++++....oooooooooooooooooooooooooooooooooo",
"ooooooooooooooooooooooooooooo  ...%%%%@@@@@@@XXXXXXX++++++++++....oooooooooooooooooooooooooooooooooo",
"ooooooooooooooooooooooooooooo  ...%%%%@@@@@@@XXXXXXX++++++++++....oooooooooooooooooooooooooooooooooo",
"ooooooooooooooooooooooooooooo  ...@@@@@@@@@@@%%%@@@@XXXXXXX+++....oooooooooooooooooooooooooooooooooo",
"ooooooooooooooooooooooooooooo  ...@@@@@@@@@@@%%%@@@@XXXXXXX+++....oooooooooooooooooooooooooooooooooo",
"ooooooooooooooooooooooooooooo  ...@@@@@@@@@@@%%%@@@@XXXXXXX+++....oooooooooooooooooooooooooooooooooo",
"ooooooooooooooooooooooooooooo     ............................oooooooooooooooooooooooooooooooooooooo",
"ooooooooooooooooooooooooooooo     ............................oooooooooooooooooooooooooooooooooooooo",
"ooooooooooooooooooooooooooooo     ............................oooooooooooooooooooooooooooooooooooooo"
};
