/* XPM */
static char *a634c9fe63464f8fef21392afa9167fdpbs13Xjy0ebEH7EV[] = {
/* columns rows colors chars-per-pixel */
"100 100 11 1 ",
"  c None",
". c #105710",
"X c #237023",
"o c #9E4265",
"O c #0BB813",
"+ c #289128",
"@ c #FFC90E",
"# c #FFF200",
"$ c #C9FF42",
"% c #E0578B",
"& c #F26F9B",
/* pixels */
"                                                                                                    ",
"                                                                                                    ",
"                                                                                                    ",
"                                                                                                    ",
"                                   oooooo                                                           ",
"                                   oooooo                                                           ",
"                                   oooooo                                                           ",
"                                ooo%%%&&&ooo................                                        ",
"                                ooo%%%&&&ooo................                                        ",
"                                ooo%%%&&&ooo................                                        ",
"                             oooooo%%%&&&oooooo++++XXXXXX$$$...                                     ",
"                             oooooo%%%&&&oooooo++++XXXXXX$$$...                                     ",
"                          ooo&&&&&&@@@###&&&%%%ooooOOOOOOOOO...                                     ",
"                          ooo&&&&&&@@@###&&&%%%ooooOOOOOOOOO...                                     ",
"                          ooo&&&&&&@@@###&&&%%%ooooOOOOOOOOO...                                     ",
"                          ooo%%%%%%@@@@@@%%%%%%ooooOOOOOOOOO...                                     ",
"                          ooo%%%%%%@@@@@@%%%%%%ooooOOOOOOOOO...                                     ",
"                          ooo%%%%%%@@@@@@%%%%%%ooooOOOOOOOOO...                                     ",
"                             oooooo%%%&&&ooooooOOOOOOOOOOOOO...                                     ",
"                             oooooo%%%&&&ooooooOOOOOOOOOOOOO...                                     ",
"                             oooooo%%%&&&ooooooOOOOOOOOOOOOO...                                     ",
"                                ooo%%%%%%oooOOOOOOOOOOOOOOOO...                                     ",
"                                ooo%%%%%%oooOOOOOOOOOOOOOOOO...                                     ",
"                                ooo%%%%%%oooOOOOOOOOOOOOOOOO...                                     ",
"                                ...ooooooOOOOOOOOOO$$$OOOOOO...                                     ",
"                                ...ooooooOOOOOOOOOO$$$OOOOOO...                                     ",
"                                ...+++OOOOOOOOOOOOOOOOOOOOOO$$$$$$                                  ",
"                                ...+++OOOOOOOOOOOOOOOOOOOOOO$$$$$$                                  ",
"                                ...+++OOOOOOOOOOOOOOOOOOOOOO$$$$$$                                  ",
"                                ...$$$OOOOOOOOOOOOOOOOOOOOOO...                                     ",
"                                ...$$$OOOOOOOOOOOOOOOOOOOOOO...                                     ",
"                                ...$$$OOOOOOOOOOOOOOOOOOOOOO...                                     ",
"          ..........            ...+++OOOOOO...OOOOOOOOOO$$$...               ..........            ",
"          ..........            ...+++OOOOOO...OOOOOOOOOO$$$...               ..........            ",
"          ..........            ...+++OOOOOO...OOOOOOOOOO$$$...               ..........            ",
"       ...++++++XXXX...         ...+++OOO$$$...OOOOOOOOOOOOO...            ...OOOO++++++...         ",
"       ...++++++XXXX...         ...+++OOO$$$...OOOOOOOOOOOOO...            ...OOOO++++++...         ",
"       ...+++...OOOO...         ...+++OOOOOO...OOOOOOOOOOOOO...            ...OOOOOOO+++...         ",
"       ...+++...OOOO...         ...+++OOOOOO...OOOOOOOOOOOOO...            ...OOOOOOO+++...         ",
"       ...+++...OOOO...         ...+++OOOOOO...OOOOOOOOOOOOO...            ...OOOOOOO+++...         ",
"    $$$$$$+++...OOOOOOO.........OOOOOOOOOOOO...OOOOOOOOOOOOO...            ...OOOO...+++$$$         ",
"    $$$$$$+++...OOOOOOO.........OOOOOOOOOOOO...OOOOOOOOOOOOO...            ...OOOO...+++$$$         ",
"    $$$$$$+++...OOOOOOO.........OOOOOOOOOOOO...OOOOOOOOOOOOO...            ...OOOO...+++$$$         ",
"       ...+++...$$$$OOOOOOOOOOOOOOOOOOOOOOOO...OOOOOOOOOOOOO...            ...OOOO...+++$$$$$$      ",
"       ...+++...$$$$OOOOOOOOOOOOOOOOOOOOOOOO...OOOOOOOOOOOOO...            ...OOOO...+++$$$$$$      ",
"       ...+++...$$$$OOOOOOOOOOOOOOOOOOOOOOOO...OOOOOOOOOOOOO...            ...OOOO...+++$$$$$$      ",
"       ...+++...OOOOOOOOOO$$$OOOOOOOOOOOO$$$...OOOOOOOOOOOOO...            ...OOOO...+++...         ",
"       ...+++...OOOOOOOOOO$$$OOOOOOOOOOOO$$$...OOOOOOOOOOOOO...            ...OOOO...+++...         ",
"       ...+++...OOOOOOOOOO$$$OOOOOOOOOOOO$$$...OOOOOOOOOOOOO...            ...OOOO...+++...         ",
"          $$$+++XXXXOOOOOOOOOOOOOOOOOOOOOOOO...OOOOOOOOOOOOOOOO............OOOOOOO...+++...         ",
"          $$$+++XXXXOOOOOOOOOOOOOOOOOOOOOOOO...OOOOOOOOOOOOOOOO............OOOOOOO...+++...         ",
"       $$$   ...++++XXXOOOOOO$$$OOOOOOOOOOOO...OOOOOOOOOOOOOOOOOOOOOOOOOOOOOOO$$$$OOO+++...         ",
"       $$$   ...++++XXXOOOOOO$$$OOOOOOOOOOOO...OOOOOOOOOOOOOOOOOOOOOOOOOOOOOOO$$$$OOO+++...         ",
"       $$$   ...++++XXXOOOOOO$$$OOOOOOOOOOOO...OOOOOOOOOOOOOOOOOOOOOOOOOOOOOOO$$$$OOO+++...         ",
"                ....++++++XXXXXXXXXOOO...OOO...OOOOOOOOOOOOOOOOOOO$$$OOOOOOOOOOOOOXXX+++...         ",
"                ....++++++XXXXXXXXXOOO...OOO...OOOOOOOOOOOOOOOOOOO$$$OOOOOOOOOOOOOXXX+++...         ",
"                ....++++++XXXXXXXXXOOO...OOO...OOOOOOOOOOOOOOOOOOO$$$OOOOOOOOOOOOOXXX+++...         ",
"                    ...............XXX...OOO...OOOOOOO$$$OOOOOOOOOOOOOOOXXXXXXXXXXXXX...            ",
"                    ...............XXX...OOO...OOOOOOO$$$OOOOOOOOOOOOOOOXXXXXXXXXXXXX...            ",
"                    ...............XXX...OOO...OOOOOOO$$$OOOOOOOOOOOOOOOXXXXXXXXXXXXX...            ",
"                                ...XXX...OOOOOOOOOOOOOOOOOOOOOOXXXXXXXXXXXX..........               ",
"                                ...XXX...OOOOOOOOOOOOOOOOOOOOOOXXXXXXXXXXXX..........               ",
"                                ...XXX...OOOOOOOOOOOOOOOOOOOOOOXXXXXXXXXXXX..........               ",
"                             $$$$$$XXX...OOOOOOOOOO...OOOOOOOOO............                         ",
"                             $$$$$$XXX...OOOOOOOOOO...OOOOOOOOO............                         ",
"                                ...XXX...OOOOOOOOOO...OOOOOO...                                     ",
"                                ...XXX...OOOOOOOOOO...OOOOOO...                                     ",
"                                ...XXX...OOOOOOOOOO...OOOOOO...                                     ",
"                                ...XXX...OOO$$$OOOO...OOOOOO...                                     ",
"                                ...XXX...OOO$$$OOOO...OOOOOO...                                     ",
"                                ...XXX...OOO$$$OOOO...OOOOOO...                                     ",
"                                ...+++...OOOOOOOOOO...OOOOOO$$$$$$                                  ",
"                                ...+++...OOOOOOOOOO...OOOOOO$$$$$$                                  ",
"                                ...+++...OOOOOOOOOO...OOOOOO$$$$$$                                  ",
"                                ...$$$...OOO...OOOO...OOOOOO...                                     ",
"                                ...$$$...OOO...OOOO...OOOOOO...                                     ",
"                                ...+++...XXX...OOOO...OOOOOO...                                     ",
"                                ...+++...XXX...OOOO...OOOOOO...                                     ",
"                                ...+++...XXX...OOOO...OOOOOO...                                     ",
"                                ...+++...XXX...OOOO...$$$OOO...                                     ",
"                                ...+++...XXX...OOOO...$$$OOO...                                     ",
"                                ...+++...XXX...OOOO...$$$OOO...                                     ",
"                                ...+++...XXX...OOOO...OOOOOO...                                     ",
"                                ...+++...XXX...OOOO...OOOOOO...                                     ",
"                                ...+++...XXX...OOOO...OOOOOO...                                     ",
"                                ...+++...XXX...OOOO...OOOOOO...                                     ",
"                                ...+++...XXX...OOOO...OOOOOO...                                     ",
"                                ...+++...XXX...OOOO...OOOOOO...                                     ",
"                                ...$$$++++++XXXXXXXOOOOOOOOO...                                     ",
"                                ...$$$++++++XXXXXXXOOOOOOOOO...                                     ",
"                                ...+++++++++$$$++++XXXXXXOOO...                                     ",
"                                ...+++++++++$$$++++XXXXXXOOO...                                     ",
"                                ...+++++++++$$$++++XXXXXXOOO...                                     ",
"                                   .........................                                        ",
"                                   .........................                                        ",
"                                   .........................                                        ",
"                                                                                                    ",
"                                                                                                    ",
"                                                                                                    ",
"                                                                                                    "
};
