/* XPM */
static char *_7aa9c025e874a18854061467b16b0ffYgKkWUY2LMGa7VF5[] = {
/* columns rows colors chars-per-pixel */
"100 100 9 1 ",
"  c None",
". c black",
"X c #520D32",
"o c #F44336",
"O c #880E4F",
"+ c #C51162",
"@ c #FF8A80",
"# c gray99",
"$ c white",
/* pixels */
"                                                                                                    ",
"                                                                                                    ",
"                                                                                                    ",
"              ..............          ......................          ..............                ",
"              ..............          ......................          ..............                ",
"              ..............          ......................          ..............                ",
"              ..............          ......................          ..............                ",
"          ............................$$$$$$$$$$$$$$$$$$$$$$............................            ",
"          ............................$$$$$$$$$$$$$$$$$$$$$$............................            ",
"          ............................$$$$$$$$$$$$$$$$$$$$$$............................            ",
"          ............................$$$$$$$$$$$$$$$$$$$$$$............................            ",
"          ..............$$$$$$$$$$$$$$$$$$$$$$$$$$$$$$$$$$$$$$$$$$$$$$$$$$..............            ",
"          ..............$$$$$$$$$$$$$$$$$$$$$$$$$$$$$$$$$$$$$$$$$$$$$$$$$$..............            ",
"          ..............$$$$$$$$$$$$$$$$$$$$$$$$$$$$$$$$$$$$$$$$$$$$$$$$$$..............            ",
"          ...........$$$$$$$$$$$$$$$$$$$$$$$$$$$$$$$$$$$$$$$$$$$$$$$$$$$$$$$$...........            ",
"          ...........$$$$$$$$$$$$$$$$$$$$$$$$$$$$$$$$$$$$$$$$$$$$$$$$$$$$$$$$...........            ",
"          ...........$$$$$$$$$$$$$$$$$$$$$$$$$$$$$$$$$$$$$$$$$$$$$$$$$$$$$$$$...........            ",
"          ...........$$$$$$$$$$$$$$$$$$$$$$$$$$$$$$$$$$$$$$$$$$$$$$$$$$$$$$$$...........            ",
"          .......$$$$$$$$$$$$$$$$$$$$$$$$$$$$$$$$$$$$$$$$$$$$$$$$$$$$$$$$$$$$$$$$.......            ",
"          .......$$$$$$$$$$$$$$$$$$$$$$$$$$$$$$$$$$$$$$$$$$$$$$$$$$$$$$$$$$$$$$$$.......            ",
"          .......$$$$$$$$$$$$$$$$$$$$$$$$$$$$$$$$$$$$$$$$$$$$$$$$$$$$$$$$$$$$$$$$.......            ",
"          .......$$$$$$$$$$$$$$$$$$$$$$$$$$$$$$$$$$$$$$$$$$$$$$$$$$$$$$$$$$$$$$$$.......            ",
"              ...$$$$$$$$$$$$$$$$$$$$$$$$$$$$$$$$$$$$$$$$$$$$$$$$$$$$$$$$$$$$$$$$...                ",
"              ...$$$$$$$$$$$$$$$$$$$$$$$$$$$$$$$$$$$$$$$$$$$$$$$$$$$$$$$$$$$$$$$$...                ",
"              ...$$$$$$$$$$$$$$$$$$$$$$$$$$$$$$$$$$$$$$$$$$$$$$$$$$$$$$$$$$$$$$$$...                ",
"              ...$$$$$$$$$$$$$$$$$$$$$$$$$$$$$$$$$$$$$$$$$$$$$$$$$$$$$$$$$$$$$$$$...                ",
"                 ....$$$$$$$$$$$$$$$$$$$$$$$$$$$$$$$$$$$$$$$$$$$$$$$$$$$$$$$$....                   ",
"                 ....$$$$$$$$$$$$$$$$$$$$$$$$$$$$$$$$$$$$$$$$$$$$$$$$$$$$$$$$....                   ",
"                 ....$$$$$$$$$$$$$$$$$$$$$$$$$$$$$$$$$$$$$$$$$$$$$$$$$$$$$$$$....                   ",
"                 ....$$$$$$$$$$...........$$$$$$$$$$$$$$...........$$$$$$$$$$....                   ",
"                 ....$$$$$$$$$$...........$$$$$$$$$$$$$$...........$$$$$$$$$$....                   ",
"                 ....$$$$$$$$$$...........$$$$$$$$$$$$$$...........$$$$$$$$$$....                   ",
"                 ....$$$$$$$$$$...........$$$$$$$$$$$$$$...........$$$$$$$$$$....                   ",
"                 ....$$$$$$$..........$$$$...$$$$$$$$..........$$$$...$$$$$$$....                   ",
"                 ....$$$$$$$..........$$$$...$$$$$$$$..........$$$$...$$$$$$$....                   ",
"                 ....$$$$$$$..........$$$$...$$$$$$$$..........$$$$...$$$$$$$....                   ",
"                 ....$$$$$$$..........$$$$...$$$$$$$$..........$$$$...$$$$$$$....                   ",
"                 ....$$$$$$$.......$$$.......$$$$$$$$.......$$$.......$$$$$$$....                   ",
"                 ....$$$$$$$.......$$$.......$$$$$$$$.......$$$.......$$$$$$$....                   ",
"                 ....$$$$$$$.......$$$.......$$$$$$$$.......$$$.......$$$$$$$....                   ",
"                 ....$$$$$$$.......$$$.......$$$$$$$$.......$$$.......$$$$$$$....                   ",
"                 ....$$$$$$$$$$...........$$$$$$$$$$$$$$...........$$$$$$$$$$....                   ",
"                 ....$$$$$$$$$$...........$$$$$$$$$$$$$$...........$$$$$$$$$$....                   ",
"                 ....$$$$$$$$$$...........$$$$$$$$$$$$$$...........$$$$$$$$$$....                   ",
"                 ....$$$$$$$$$$$$$$$$$$$$$$$$........$$$$$$$$$$$$$$$$$$$$$$$$....                   ",
"                 ....$$$$$$$$$$$$$$$$$$$$$$$$........$$$$$$$$$$$$$$$$$$$$$$$$....                   ",
"                 ....$$$$$$$$$$$$$$$$$$$$$$$$........$$$$$$$$$$$$$$$$$$$$$$$$....                   ",
"                 ....$$$$$$$$$$$$$$$$$$$$$$$$........$$$$$$$$$$$$$$$$$$$$$$$$....                   ",
"                     ...$$$$$$$$$$$$$$$$$$$$$........$$$$$$$$$$$$$$$$$$$$$...                       ",
"                     ...$$$$$$$$$$$$$$$$$$$$$........$$$$$$$$$$$$$$$$$$$$$...                       ",
"                     ...$$$$$$$$$$$$$$$$$$$$$........$$$$$$$$$$$$$$$$$$$$$...                       ",
"                     ...$$$$$$$$$$$$$$$$$$$$$........$$$$$$$$$$$$$$$$$$$$$...                       ",
"                 ...........$$$$$$$$$$$$$$$$$$$$$$$$$$$$$$$$$$$$$$$$$$...........                   ",
"                 ...........$$$$$$$$$$$$$$$$$$$$$$$$$$$$$$$$$$$$$$$$$$...........                   ",
"                 ...........$$$$$$$$$$$$$$$$$$$$$$$$$$$$$$$$$$$$$$$$$$...........                   ",
"                 ...........$$$$$$$$$$$$$$$$$$$$$$$$$$$$$$$$$$$$$$$$$$...........                   ",
"              ......................................................................                ",
"              ......................................................................                ",
"              ......................................................................                ",
"          ..............................................................................            ",
"          ..............................................................................            ",
"          ..............................................................................            ",
"          ..............................................................................            ",
"          ..................$$$$$$$$$$$$$$$$$$$$$$$$$$$$$$$$$$$$$$$$$$..................            ",
"          ..................$$$$######$#####$$$###$$$$$$$$$$$###$$####..................            ",
"          ..................$$$$######$$####$$####$$$$##$$$$####$$####..................            ",
"          ..................##$$$#$$#$$$$###$$$$################$$$#$$..................            ",
"              ..............#$$$$$$$#$$$$##OOOO$#OOOO###########$$##$$..............                ",
"              ..............#######$$$$#$$O@@@@OO@@@@O#$########$$$$$$..............                ",
"              ..............#######$$$$#$$O@@@@OO@@@@O$$#$######$$$$$$..............                ",
"              ..............$$######$$##$#Ooooo@@oo++O$$$$$$######$$##..............                ",
"                 .......##$$$$#######$##$$X++ooooo+++X$$$$$$###$########$$.......                   ",
"                 .......$$###$$$###$$$###$$XX+oooo+++X######$$$$####$$$$$#.......                   ",
"                 .......$$$$#$$$##$#$$###$$XX+ooo++XX$######$$$$####$$$$$#.......                   ",
"                        ....##$$####$####$$$$X++++X$$$$$$$$$####$$##$$....                          ",
"                        ....########$$###$$$$$X++X$$$$$$$$$$####$$$###....                          ",
"                        ....####$$$$##$$$$$###X++X$$###$$###$$##$$####....                          ",
"                        ....####$$#$###$$$#####XX$$$########$$##$$##$#....                          ",
"                        ....$$#$$$###$$$######$$$$#$########$$$#####$$....                          ",
"                        ....$$$$#########$$$#$$$$$##########$$######$$....                          ",
"                        ....$$$$$$$$$$###$$$$$$$$###$$$$$###$$$$$#$$$$....                          ",
"                        ....$$$$$$$$$$###$$$$$$$$###$$$$$###$$$$$##$$$....                          ",
"                            ..........................................                              ",
"                            ..........................................                              ",
"                            ..........................................                              ",
"                            ..........................................                              ",
"                            ..........................................                              ",
"                            ..........................................                              ",
"                            ..........................................                              ",
"                            .................        .................                              ",
"                            .................        .................                              ",
"                            .................        .................                              ",
"                            .................        .................                              ",
"                            .................        .................                              ",
"                            .................        .................                              ",
"                            .................        .................                              ",
"                            .................        .................                              ",
"                                                                                                    ",
"                                                                                                    ",
"                                                                                                    "
};
